%TF.GenerationSoftware,Altium Limited,Altium Designer,25.5.2 (35)*%
G04 Layer_Color=32896*
%FSLAX45Y45*%
%MOMM*%
%TF.SameCoordinates,04C475F5-62FD-4A33-8D44-780EF8A6E366*%
%TF.FilePolarity,Positive*%
%TF.FileFunction,Legend,Bot*%
%TF.Part,Single*%
G01*
G75*
%TA.AperFunction,NonConductor*%
%ADD25C,0.20000*%
%ADD26C,0.15000*%
G36*
X605000Y5181921D02*
X565000Y5214079D01*
Y5149764D01*
X605000Y5181921D01*
D02*
G37*
D25*
X3031000Y4144000D02*
Y4189000D01*
X2991000Y4196000D02*
X3576000D01*
X3536000Y4144000D02*
Y4189000D01*
X2991000Y3633000D02*
X3576000D01*
X3031000Y3644000D02*
Y3689000D01*
X3536000Y3644000D02*
Y3689000D01*
D26*
X396942Y678316D02*
Y625000D01*
X356955D01*
X370284Y651658D01*
Y664987D01*
X356955Y678316D01*
X330297D01*
X316968Y664987D01*
Y638329D01*
X330297Y625000D01*
X396942Y758290D02*
Y704974D01*
X356955D01*
X370284Y731632D01*
Y744961D01*
X356955Y758290D01*
X330297D01*
X316968Y744961D01*
Y718303D01*
X330297Y704974D01*
X370284Y784948D02*
X316968Y838264D01*
X343626Y811606D01*
X370284Y838264D01*
X316968Y784948D01*
X383613Y864922D02*
X396942Y878251D01*
Y904910D01*
X383613Y918238D01*
X370284D01*
X356955Y904910D01*
Y891580D01*
Y904910D01*
X343626Y918238D01*
X330297D01*
X316968Y904910D01*
Y878251D01*
X330297Y864922D01*
X396942Y944897D02*
Y998213D01*
X383613D01*
X330297Y944897D01*
X316968D01*
X185000Y664987D02*
X264974D01*
X224987Y625000D01*
Y678316D01*
X198329Y704974D02*
X185000Y718303D01*
Y744961D01*
X198329Y758290D01*
X251645D01*
X264974Y744961D01*
Y718303D01*
X251645Y704974D01*
X238316D01*
X224987Y718303D01*
Y758290D01*
X238316Y784948D02*
X185000Y838264D01*
X211658Y811606D01*
X238316Y838264D01*
X185000Y784948D01*
X251645Y864922D02*
X264974Y878251D01*
Y904910D01*
X251645Y918238D01*
X238316D01*
X224987Y904910D01*
Y891580D01*
Y904910D01*
X211658Y918238D01*
X198329D01*
X185000Y904910D01*
Y878251D01*
X198329Y864922D01*
X185000Y944897D02*
Y971555D01*
Y958226D01*
X264974D01*
X251645Y944897D01*
%TF.MD5,c651b3cb5ab88deb9415bb0b5ced6620*%
M02*
