%TF.GenerationSoftware,Altium Limited,Altium Designer,25.5.2 (35)*%
G04 Layer_Color=255*
%FSLAX45Y45*%
%MOMM*%
%TF.SameCoordinates,04C475F5-62FD-4A33-8D44-780EF8A6E366*%
%TF.FilePolarity,Positive*%
%TF.FileFunction,Pads,Bot*%
%TF.Part,Single*%
G01*
G75*
%TA.AperFunction,ComponentPad*%
G04:AMPARAMS|DCode=17|XSize=1.55mm|YSize=1.6mm|CornerRadius=0.3875mm|HoleSize=0mm|Usage=FLASHONLY|Rotation=270.000|XOffset=0mm|YOffset=0mm|HoleType=Round|Shape=RoundedRectangle|*
%AMROUNDEDRECTD17*
21,1,1.55000,0.82500,0,0,270.0*
21,1,0.77500,1.60000,0,0,270.0*
1,1,0.77500,-0.41250,-0.38750*
1,1,0.77500,-0.41250,0.38750*
1,1,0.77500,0.41250,0.38750*
1,1,0.77500,0.41250,-0.38750*
%
%ADD17ROUNDEDRECTD17*%
G04:AMPARAMS|DCode=19|XSize=1.7mm|YSize=3.2mm|CornerRadius=0.425mm|HoleSize=0mm|Usage=FLASHONLY|Rotation=90.000|XOffset=0mm|YOffset=0mm|HoleType=Round|Shape=RoundedRectangle|*
%AMROUNDEDRECTD19*
21,1,1.70000,2.35001,0,0,90.0*
21,1,0.85000,3.20000,0,0,90.0*
1,1,0.85000,1.17500,0.42500*
1,1,0.85000,1.17500,-0.42500*
1,1,0.85000,-1.17500,-0.42500*
1,1,0.85000,-1.17500,0.42500*
%
%ADD19ROUNDEDRECTD19*%
G04:AMPARAMS|DCode=20|XSize=4mm|YSize=3.6mm|CornerRadius=0.54mm|HoleSize=0mm|Usage=FLASHONLY|Rotation=90.000|XOffset=0mm|YOffset=0mm|HoleType=Round|Shape=RoundedRectangle|*
%AMROUNDEDRECTD20*
21,1,4.00000,2.52000,0,0,90.0*
21,1,2.92000,3.60000,0,0,90.0*
1,1,1.08000,1.26000,1.46000*
1,1,1.08000,1.26000,-1.46000*
1,1,1.08000,-1.26000,-1.46000*
1,1,1.08000,-1.26000,1.46000*
%
%ADD20ROUNDEDRECTD20*%
G04:AMPARAMS|DCode=21|XSize=1.7mm|YSize=2.1mm|CornerRadius=0.425mm|HoleSize=0mm|Usage=FLASHONLY|Rotation=270.000|XOffset=0mm|YOffset=0mm|HoleType=Round|Shape=RoundedRectangle|*
%AMROUNDEDRECTD21*
21,1,1.70000,1.25001,0,0,270.0*
21,1,0.85000,2.10000,0,0,270.0*
1,1,0.85000,-0.62500,-0.42500*
1,1,0.85000,-0.62500,0.42500*
1,1,0.85000,0.62500,0.42500*
1,1,0.85000,0.62500,-0.42500*
%
%ADD21ROUNDEDRECTD21*%
G04:AMPARAMS|DCode=22|XSize=1.7mm|YSize=2.1mm|CornerRadius=0mm|HoleSize=0mm|Usage=FLASHONLY|Rotation=270.000|XOffset=0mm|YOffset=0mm|HoleType=Round|Shape=Octagon|*
%AMOCTAGOND22*
4,1,8,1.05000,0.42500,1.05000,-0.42500,0.62500,-0.85000,-0.62500,-0.85000,-1.05000,-0.42500,-1.05000,0.42500,-0.62500,0.85000,0.62500,0.85000,1.05000,0.42500,0.0*
%
%ADD22OCTAGOND22*%

G04:AMPARAMS|DCode=24|XSize=1.7mm|YSize=3mm|CornerRadius=0mm|HoleSize=0mm|Usage=FLASHONLY|Rotation=270.000|XOffset=0mm|YOffset=0mm|HoleType=Round|Shape=Octagon|*
%AMOCTAGOND24*
4,1,8,1.50000,0.42500,1.50000,-0.42500,1.07500,-0.85000,-1.07500,-0.85000,-1.50000,-0.42500,-1.50000,0.42500,-1.07500,0.85000,1.07500,0.85000,1.50000,0.42500,0.0*
%
%ADD24OCTAGOND24*%

D17*
X3127000Y3160000D02*
D03*
X3277000Y1340000D02*
D03*
D19*
X2668000Y262000D02*
D03*
Y516000D02*
D03*
Y770000D02*
D03*
Y1024000D02*
D03*
Y1278000D02*
D03*
Y1532000D02*
D03*
Y1786000D02*
D03*
Y2040000D02*
D03*
Y2294000D02*
D03*
Y2548000D02*
D03*
Y2802000D02*
D03*
Y3056000D02*
D03*
Y3310000D02*
D03*
Y3564000D02*
D03*
Y3818000D02*
D03*
Y4072000D02*
D03*
Y4326000D02*
D03*
Y4580000D02*
D03*
Y4834000D02*
D03*
Y5088000D02*
D03*
X750000Y262000D02*
D03*
Y516000D02*
D03*
Y770000D02*
D03*
Y1024000D02*
D03*
Y1278000D02*
D03*
Y1532000D02*
D03*
Y1786000D02*
D03*
Y2040000D02*
D03*
Y2294000D02*
D03*
Y2548000D02*
D03*
Y2802000D02*
D03*
Y3056000D02*
D03*
Y3310000D02*
D03*
Y3564000D02*
D03*
Y3818000D02*
D03*
Y4072000D02*
D03*
Y4326000D02*
D03*
Y4580000D02*
D03*
Y4834000D02*
D03*
D20*
X3400000Y5200000D02*
D03*
X300000Y300000D02*
D03*
Y5200000D02*
D03*
X3400000Y300000D02*
D03*
D21*
X3136000Y3790000D02*
D03*
X3430000D02*
D03*
Y4044000D02*
D03*
D22*
X3136000D02*
D03*
D24*
X750000Y5088000D02*
D03*
%TF.MD5,1a5c2b526a5bba0e94e5ba0e4c4d4b97*%
M02*
