%TF.GenerationSoftware,Altium Limited,Altium Designer,25.5.2 (35)*%
G04 Layer_Color=128*
%FSLAX45Y45*%
%MOMM*%
%TF.SameCoordinates,04C475F5-62FD-4A33-8D44-780EF8A6E366*%
%TF.FilePolarity,Positive*%
%TF.FileFunction,Drillmap*%
%TF.Part,Single*%
G01*
G75*
%TA.AperFunction,NonConductor*%
%ADD55C,0.12700*%
D55*
X3067000Y3160000D02*
X3187000D01*
X3127000Y3100000D02*
Y3220000D01*
X3217000Y1340000D02*
X3337000D01*
X3277000Y1280000D02*
Y1400000D01*
X770000Y5088000D02*
X870000D01*
X820000Y5038000D02*
Y5138000D01*
X2548000Y262000D02*
X2648000D01*
X2598000Y212000D02*
Y312000D01*
X2548000Y516000D02*
X2648000D01*
X2598000Y466000D02*
Y566000D01*
X2548000Y770000D02*
X2648000D01*
X2598000Y720000D02*
Y820000D01*
X2548000Y1024000D02*
X2648000D01*
X2598000Y974000D02*
Y1074000D01*
X2548000Y1278000D02*
X2648000D01*
X2598000Y1228000D02*
Y1328000D01*
X2548000Y1532000D02*
X2648000D01*
X2598000Y1482000D02*
Y1582000D01*
X2548000Y1786000D02*
X2648000D01*
X2598000Y1736000D02*
Y1836000D01*
X2548000Y2040000D02*
X2648000D01*
X2598000Y1990000D02*
Y2090000D01*
X2548000Y2294000D02*
X2648000D01*
X2598000Y2244000D02*
Y2344000D01*
X2548000Y2548000D02*
X2648000D01*
X2598000Y2498000D02*
Y2598000D01*
X2548000Y2802000D02*
X2648000D01*
X2598000Y2752000D02*
Y2852000D01*
X2548000Y3056000D02*
X2648000D01*
X2598000Y3006000D02*
Y3106000D01*
X2548000Y3310000D02*
X2648000D01*
X2598000Y3260000D02*
Y3360000D01*
X2548000Y3564000D02*
X2648000D01*
X2598000Y3514000D02*
Y3614000D01*
X2548000Y3818000D02*
X2648000D01*
X2598000Y3768000D02*
Y3868000D01*
X2548000Y4072000D02*
X2648000D01*
X2598000Y4022000D02*
Y4122000D01*
X2548000Y4326000D02*
X2648000D01*
X2598000Y4276000D02*
Y4376000D01*
X2548000Y4580000D02*
X2648000D01*
X2598000Y4530000D02*
Y4630000D01*
X2548000Y4834000D02*
X2648000D01*
X2598000Y4784000D02*
Y4884000D01*
X2548000Y5088000D02*
X2648000D01*
X2598000Y5038000D02*
Y5138000D01*
X770000Y262000D02*
X870000D01*
X820000Y212000D02*
Y312000D01*
X770000Y516000D02*
X870000D01*
X820000Y466000D02*
Y566000D01*
X770000Y770000D02*
X870000D01*
X820000Y720000D02*
Y820000D01*
X770000Y1024000D02*
X870000D01*
X820000Y974000D02*
Y1074000D01*
X770000Y1278000D02*
X870000D01*
X820000Y1228000D02*
Y1328000D01*
X770000Y1532000D02*
X870000D01*
X820000Y1482000D02*
Y1582000D01*
X770000Y1786000D02*
X870000D01*
X820000Y1736000D02*
Y1836000D01*
X770000Y2040000D02*
X870000D01*
X820000Y1990000D02*
Y2090000D01*
X770000Y2294000D02*
X870000D01*
X820000Y2244000D02*
Y2344000D01*
X770000Y2548000D02*
X870000D01*
X820000Y2498000D02*
Y2598000D01*
X770000Y2802000D02*
X870000D01*
X820000Y2752000D02*
Y2852000D01*
X770000Y3056000D02*
X870000D01*
X820000Y3006000D02*
Y3106000D01*
X770000Y3310000D02*
X870000D01*
X820000Y3260000D02*
Y3360000D01*
X770000Y3564000D02*
X870000D01*
X820000Y3514000D02*
Y3614000D01*
X770000Y3818000D02*
X870000D01*
X820000Y3768000D02*
Y3868000D01*
X770000Y4072000D02*
X870000D01*
X820000Y4022000D02*
Y4122000D01*
X770000Y4326000D02*
X870000D01*
X820000Y4276000D02*
Y4376000D01*
X770000Y4580000D02*
X870000D01*
X820000Y4530000D02*
Y4630000D01*
X770000Y4834000D02*
X870000D01*
X820000Y4784000D02*
Y4884000D01*
X3240000Y5200000D02*
X3560000D01*
X3400000Y5040000D02*
Y5360000D01*
X140000Y300000D02*
X460000D01*
X300000Y140000D02*
Y460000D01*
X140000Y5200000D02*
X460000D01*
X300000Y5040000D02*
Y5360000D01*
X3240000Y300000D02*
X3560000D01*
X3400000Y140000D02*
Y460000D01*
X3101000Y3790000D02*
X3211000D01*
X3156000Y3735000D02*
Y3845000D01*
X3101000Y4044000D02*
X3211000D01*
X3156000Y3989000D02*
Y4099000D01*
X3355000Y3790000D02*
X3465000D01*
X3410000Y3735000D02*
Y3845000D01*
X3355000Y4044000D02*
X3465000D01*
X3410000Y3989000D02*
Y4099000D01*
X3205000Y2770000D02*
X3235000D01*
X3220000Y2755000D02*
Y2785000D01*
X2245000Y2580000D02*
X2275000D01*
X2260000Y2565000D02*
Y2595000D01*
X2245000Y2810000D02*
X2275000D01*
X2260000Y2795000D02*
Y2825000D01*
X2430803Y2976678D02*
X2460803D01*
X2445803Y2961678D02*
Y2991678D01*
X3575000Y860000D02*
X3605000D01*
X3590000Y845000D02*
Y875000D01*
X505000Y2260000D02*
X535000D01*
X520000Y2245000D02*
Y2275000D01*
X495000Y2730000D02*
X525000D01*
X510000Y2715000D02*
Y2745000D01*
X975000Y2770000D02*
X1005000D01*
X990000Y2755000D02*
Y2785000D01*
X985000Y2380000D02*
X1015000D01*
X1000000Y2365000D02*
Y2395000D01*
X525000Y4200000D02*
X555000D01*
X540000Y4185000D02*
Y4215000D01*
X2895000Y4280000D02*
X2925000D01*
X2910000Y4265000D02*
Y4295000D01*
X3115000Y4220000D02*
X3145000D01*
X3130000Y4205000D02*
Y4235000D01*
X2855000Y3940000D02*
X2885000D01*
X2870000Y3925000D02*
Y3955000D01*
X2865000Y3690000D02*
X2895000D01*
X2880000Y3675000D02*
Y3705000D01*
X2445000Y2420000D02*
X2475000D01*
X2460000Y2405000D02*
Y2435000D01*
X2865000Y2420000D02*
X2895000D01*
X2880000Y2405000D02*
Y2435000D01*
X2875000Y1700000D02*
X2905000D01*
X2890000Y1685000D02*
Y1715000D01*
X2885000Y1210000D02*
X2915000D01*
X2900000Y1195000D02*
Y1225000D01*
X955000Y390000D02*
X985000D01*
X970000Y375000D02*
Y405000D01*
X2415000Y390000D02*
X2445000D01*
X2430000Y375000D02*
Y405000D01*
X2975000Y480000D02*
X3005000D01*
X2990000Y465000D02*
Y495000D01*
X3065000Y840000D02*
X3095000D01*
X3080000Y825000D02*
Y855000D01*
X3265000Y1890000D02*
X3295000D01*
X3280000Y1875000D02*
Y1905000D01*
X3262000Y2050000D02*
X3292000D01*
X3277000Y2035000D02*
Y2065000D01*
X3262000Y2450000D02*
X3292000D01*
X3277000Y2435000D02*
Y2465000D01*
X3255000Y2690000D02*
X3285000D01*
X3270000Y2675000D02*
Y2705000D01*
X3495000Y3110000D02*
X3525000D01*
X3510000Y3095000D02*
Y3125000D01*
X3585000Y4260000D02*
X3615000D01*
X3600000Y4245000D02*
Y4275000D01*
X3245000Y4480000D02*
X3275000D01*
X3260000Y4465000D02*
Y4495000D01*
X1645000Y120000D02*
X1675000D01*
X1660000Y105000D02*
Y135000D01*
X2395000Y1400000D02*
X2425000D01*
X2410000Y1385000D02*
Y1415000D01*
X995000Y4320000D02*
X1025000D01*
X1010000Y4305000D02*
Y4335000D01*
X2415000Y3940000D02*
X2445000D01*
X2430000Y3925000D02*
Y3955000D01*
X2395000Y4200000D02*
X2425000D01*
X2410000Y4185000D02*
Y4215000D01*
X295000Y2490000D02*
X325000D01*
X310000Y2475000D02*
Y2505000D01*
X295000Y2360000D02*
X325000D01*
X310000Y2345000D02*
Y2375000D01*
X3355000Y1150000D02*
X3385000D01*
X3370000Y1135000D02*
Y1165000D01*
X3205000Y1650000D02*
X3235000D01*
X3220000Y1635000D02*
Y1665000D01*
X3205000Y1730000D02*
X3235000D01*
X3220000Y1715000D02*
Y1745000D01*
X3315000Y1650000D02*
X3345000D01*
X3330000Y1635000D02*
Y1665000D01*
X3185000Y1070000D02*
X3215000D01*
X3200000Y1055000D02*
Y1085000D01*
X3185000Y950000D02*
X3215000D01*
X3200000Y935000D02*
Y965000D01*
X3315091Y1729971D02*
X3345091D01*
X3330091Y1714971D02*
Y1744971D01*
X3185000Y730000D02*
X3215000D01*
X3200000Y715000D02*
Y745000D01*
X3185000Y610000D02*
X3215000D01*
X3200000Y595000D02*
Y625000D01*
X2915000Y2850000D02*
X2945000D01*
X2930000Y2835000D02*
Y2865000D01*
X3247500Y5040000D02*
X3272500D01*
X3260000Y5027500D02*
Y5052500D01*
X3527500Y5040000D02*
X3552500D01*
X3540000Y5027500D02*
Y5052500D01*
X3527500Y5360000D02*
X3552500D01*
X3540000Y5347500D02*
Y5372500D01*
X3247500Y5360000D02*
X3272500D01*
X3260000Y5347500D02*
Y5372500D01*
X147500Y140000D02*
X172500D01*
X160000Y127500D02*
Y152500D01*
X427500Y140000D02*
X452500D01*
X440000Y127500D02*
Y152500D01*
X427500Y460000D02*
X452500D01*
X440000Y447500D02*
Y472500D01*
X147500Y460000D02*
X172500D01*
X160000Y447500D02*
Y472500D01*
X147500Y5040000D02*
X172500D01*
X160000Y5027500D02*
Y5052500D01*
X427500Y5040000D02*
X452500D01*
X440000Y5027500D02*
Y5052500D01*
X427500Y5360000D02*
X452500D01*
X440000Y5347500D02*
Y5372500D01*
X147500Y5360000D02*
X172500D01*
X160000Y5347500D02*
Y5372500D01*
X3247500Y140000D02*
X3272500D01*
X3260000Y127500D02*
Y152500D01*
X3527500Y140000D02*
X3552500D01*
X3540000Y127500D02*
Y152500D01*
X3527500Y460000D02*
X3552500D01*
X3540000Y447500D02*
Y472500D01*
X3247500Y460000D02*
X3272500D01*
X3260000Y447500D02*
Y472500D01*
%TF.MD5,0ac8151a08705a66f5cf821a3f84bdd5*%
M02*
