%TF.GenerationSoftware,Altium Limited,Altium Designer,25.5.2 (35)*%
G04 Layer_Physical_Order=1*
G04 Layer_Color=255*
%FSLAX45Y45*%
%MOMM*%
%TF.SameCoordinates,04C475F5-62FD-4A33-8D44-780EF8A6E366*%
%TF.FilePolarity,Positive*%
%TF.FileFunction,Copper,L1,Top,Signal*%
%TF.Part,Single*%
G01*
G75*
%TA.AperFunction,SMDPad,CuDef*%
G04:AMPARAMS|DCode=10|XSize=0.6mm|YSize=0.6mm|CornerRadius=0.15mm|HoleSize=0mm|Usage=FLASHONLY|Rotation=90.000|XOffset=0mm|YOffset=0mm|HoleType=Round|Shape=RoundedRectangle|*
%AMROUNDEDRECTD10*
21,1,0.60000,0.30000,0,0,90.0*
21,1,0.30000,0.60000,0,0,90.0*
1,1,0.30000,0.15000,0.15000*
1,1,0.30000,0.15000,-0.15000*
1,1,0.30000,-0.15000,-0.15000*
1,1,0.30000,-0.15000,0.15000*
%
%ADD10ROUNDEDRECTD10*%
G04:AMPARAMS|DCode=11|XSize=2.2mm|YSize=0.5mm|CornerRadius=0.125mm|HoleSize=0mm|Usage=FLASHONLY|Rotation=180.000|XOffset=0mm|YOffset=0mm|HoleType=Round|Shape=RoundedRectangle|*
%AMROUNDEDRECTD11*
21,1,2.20000,0.25000,0,0,180.0*
21,1,1.95000,0.50000,0,0,180.0*
1,1,0.25000,-0.97500,0.12500*
1,1,0.25000,0.97500,0.12500*
1,1,0.25000,0.97500,-0.12500*
1,1,0.25000,-0.97500,-0.12500*
%
%ADD11ROUNDEDRECTD11*%
G04:AMPARAMS|DCode=12|XSize=0.8mm|YSize=0.8mm|CornerRadius=0.2mm|HoleSize=0mm|Usage=FLASHONLY|Rotation=90.000|XOffset=0mm|YOffset=0mm|HoleType=Round|Shape=RoundedRectangle|*
%AMROUNDEDRECTD12*
21,1,0.80000,0.40000,0,0,90.0*
21,1,0.40000,0.80000,0,0,90.0*
1,1,0.40000,0.20000,0.20000*
1,1,0.40000,0.20000,-0.20000*
1,1,0.40000,-0.20000,-0.20000*
1,1,0.40000,-0.20000,0.20000*
%
%ADD12ROUNDEDRECTD12*%
%ADD13R,0.80000X0.80000*%
%ADD14R,0.70000X0.24000*%
%ADD15O,0.30000X1.70000*%
%TA.AperFunction,Conductor*%
%ADD16C,0.30000*%
%TA.AperFunction,ComponentPad*%
G04:AMPARAMS|DCode=17|XSize=1.55mm|YSize=1.6mm|CornerRadius=0.3875mm|HoleSize=0mm|Usage=FLASHONLY|Rotation=270.000|XOffset=0mm|YOffset=0mm|HoleType=Round|Shape=RoundedRectangle|*
%AMROUNDEDRECTD17*
21,1,1.55000,0.82500,0,0,270.0*
21,1,0.77500,1.60000,0,0,270.0*
1,1,0.77500,-0.41250,-0.38750*
1,1,0.77500,-0.41250,0.38750*
1,1,0.77500,0.41250,0.38750*
1,1,0.77500,0.41250,-0.38750*
%
%ADD17ROUNDEDRECTD17*%
G04:AMPARAMS|DCode=18|XSize=1.7mm|YSize=3.2mm|CornerRadius=0mm|HoleSize=0mm|Usage=FLASHONLY|Rotation=270.000|XOffset=0mm|YOffset=0mm|HoleType=Round|Shape=Octagon|*
%AMOCTAGOND18*
4,1,8,1.60000,0.42500,1.60000,-0.42500,1.17500,-0.85000,-1.17500,-0.85000,-1.60000,-0.42500,-1.60000,0.42500,-1.17500,0.85000,1.17500,0.85000,1.60000,0.42500,0.0*
%
%ADD18OCTAGOND18*%

G04:AMPARAMS|DCode=19|XSize=1.7mm|YSize=3.2mm|CornerRadius=0.425mm|HoleSize=0mm|Usage=FLASHONLY|Rotation=90.000|XOffset=0mm|YOffset=0mm|HoleType=Round|Shape=RoundedRectangle|*
%AMROUNDEDRECTD19*
21,1,1.70000,2.35001,0,0,90.0*
21,1,0.85000,3.20000,0,0,90.0*
1,1,0.85000,1.17500,0.42500*
1,1,0.85000,1.17500,-0.42500*
1,1,0.85000,-1.17500,-0.42500*
1,1,0.85000,-1.17500,0.42500*
%
%ADD19ROUNDEDRECTD19*%
G04:AMPARAMS|DCode=20|XSize=4mm|YSize=3.6mm|CornerRadius=0.54mm|HoleSize=0mm|Usage=FLASHONLY|Rotation=90.000|XOffset=0mm|YOffset=0mm|HoleType=Round|Shape=RoundedRectangle|*
%AMROUNDEDRECTD20*
21,1,4.00000,2.52000,0,0,90.0*
21,1,2.92000,3.60000,0,0,90.0*
1,1,1.08000,1.26000,1.46000*
1,1,1.08000,1.26000,-1.46000*
1,1,1.08000,-1.26000,-1.46000*
1,1,1.08000,-1.26000,1.46000*
%
%ADD20ROUNDEDRECTD20*%
G04:AMPARAMS|DCode=21|XSize=1.7mm|YSize=2.1mm|CornerRadius=0.425mm|HoleSize=0mm|Usage=FLASHONLY|Rotation=270.000|XOffset=0mm|YOffset=0mm|HoleType=Round|Shape=RoundedRectangle|*
%AMROUNDEDRECTD21*
21,1,1.70000,1.25001,0,0,270.0*
21,1,0.85000,2.10000,0,0,270.0*
1,1,0.85000,-0.62500,-0.42500*
1,1,0.85000,-0.62500,0.42500*
1,1,0.85000,0.62500,0.42500*
1,1,0.85000,0.62500,-0.42500*
%
%ADD21ROUNDEDRECTD21*%
G04:AMPARAMS|DCode=22|XSize=1.7mm|YSize=2.1mm|CornerRadius=0mm|HoleSize=0mm|Usage=FLASHONLY|Rotation=270.000|XOffset=0mm|YOffset=0mm|HoleType=Round|Shape=Octagon|*
%AMOCTAGOND22*
4,1,8,1.05000,0.42500,1.05000,-0.42500,0.62500,-0.85000,-0.62500,-0.85000,-1.05000,-0.42500,-1.05000,0.42500,-0.62500,0.85000,0.62500,0.85000,1.05000,0.42500,0.0*
%
%ADD22OCTAGOND22*%

%TA.AperFunction,ViaPad*%
%ADD23C,0.60000*%
G36*
X3540437Y5450913D02*
X3578118Y5435305D01*
X3610476Y5410476D01*
X3635305Y5378118D01*
X3650913Y5340437D01*
X3656164Y5300550D01*
X3656055Y5300000D01*
X3656056Y200000D01*
X3656165Y199453D01*
X3650913Y159563D01*
X3635305Y121882D01*
X3610476Y89524D01*
X3578118Y64695D01*
X3540437Y49087D01*
X3500547Y43836D01*
X3500000Y43944D01*
X214956Y43944D01*
X214710Y43944D01*
X200000Y43945D01*
X185705Y45646D01*
X159563Y49087D01*
X121882Y64695D01*
X89524Y89524D01*
X64695Y121882D01*
X49087Y159563D01*
X43836Y199453D01*
X43944Y200000D01*
X43943Y5285008D01*
X43945Y5300000D01*
X45646Y5314295D01*
X49087Y5340437D01*
X64695Y5378118D01*
X89524Y5410476D01*
X121882Y5435305D01*
X159563Y5450913D01*
X185705Y5454354D01*
X200000Y5456055D01*
Y5456056D01*
X200001Y5456056D01*
X3500000Y5456056D01*
X3500547Y5456164D01*
X3540437Y5450913D01*
D02*
G37*
%LPC*%
G36*
X3526000Y5426955D02*
X3412700D01*
Y5212700D01*
X3606955D01*
Y5346000D01*
X3600793Y5376980D01*
X3583244Y5403244D01*
X3556980Y5420793D01*
X3526000Y5426955D01*
D02*
G37*
G36*
X426000D02*
X312700D01*
Y5212700D01*
X506955D01*
Y5346000D01*
X500793Y5376980D01*
X483244Y5403244D01*
X456980Y5420793D01*
X426000Y5426955D01*
D02*
G37*
G36*
X3387300D02*
X3274000D01*
X3243020Y5420793D01*
X3216756Y5403244D01*
X3199207Y5376980D01*
X3193045Y5346000D01*
Y5212700D01*
X3387300D01*
Y5426955D01*
D02*
G37*
G36*
X287300D02*
X174000D01*
X143020Y5420793D01*
X116756Y5403244D01*
X99207Y5376980D01*
X93045Y5346000D01*
Y5212700D01*
X287300D01*
Y5426955D01*
D02*
G37*
G36*
X877500Y5193000D02*
X622500D01*
X570000Y5140500D01*
Y5035500D01*
X622500Y4983000D01*
X877500D01*
X930000Y5035500D01*
Y5140500D01*
X877500Y5193000D01*
D02*
G37*
G36*
X2785500Y5194224D02*
X2550500D01*
X2526114Y5189374D01*
X2505440Y5175560D01*
X2491626Y5154886D01*
X2486776Y5130500D01*
Y5045500D01*
X2491626Y5021114D01*
X2505440Y5000440D01*
X2526114Y4986626D01*
X2550500Y4981776D01*
X2785500D01*
X2809886Y4986626D01*
X2830560Y5000440D01*
X2844374Y5021114D01*
X2849224Y5045500D01*
Y5130500D01*
X2844374Y5154886D01*
X2830560Y5175560D01*
X2809886Y5189374D01*
X2785500Y5194224D01*
D02*
G37*
G36*
X3606955Y5187300D02*
X3412700D01*
Y4973045D01*
X3526000D01*
X3556980Y4979207D01*
X3583244Y4996756D01*
X3600793Y5023020D01*
X3606955Y5054000D01*
Y5187300D01*
D02*
G37*
G36*
X3387300D02*
X3193045D01*
Y5054000D01*
X3199207Y5023020D01*
X3216756Y4996756D01*
X3243020Y4979207D01*
X3274000Y4973045D01*
X3387300D01*
Y5187300D01*
D02*
G37*
G36*
X506955D02*
X312700D01*
Y4973045D01*
X426000D01*
X456980Y4979207D01*
X483244Y4996756D01*
X500793Y5023020D01*
X506955Y5054000D01*
Y5187300D01*
D02*
G37*
G36*
X287300D02*
X93045D01*
Y5054000D01*
X99207Y5023020D01*
X116756Y4996756D01*
X143020Y4979207D01*
X174000Y4973045D01*
X287300D01*
Y5187300D01*
D02*
G37*
G36*
X2785500Y4940224D02*
X2550500D01*
X2526114Y4935374D01*
X2505440Y4921560D01*
X2491626Y4900886D01*
X2486776Y4876500D01*
Y4791500D01*
X2491626Y4767114D01*
X2505440Y4746440D01*
X2526114Y4732626D01*
X2550500Y4727776D01*
X2785500D01*
X2809886Y4732626D01*
X2830560Y4746440D01*
X2844374Y4767114D01*
X2849224Y4791500D01*
Y4876500D01*
X2844374Y4900886D01*
X2830560Y4921560D01*
X2809886Y4935374D01*
X2785500Y4940224D01*
D02*
G37*
G36*
X867500D02*
X632500D01*
X608113Y4935374D01*
X587440Y4921560D01*
X573626Y4900886D01*
X568775Y4876500D01*
Y4791500D01*
X573626Y4767114D01*
X587440Y4746440D01*
X608113Y4732626D01*
X632500Y4727776D01*
X867500D01*
X891886Y4732626D01*
X912560Y4746440D01*
X926374Y4767114D01*
X931224Y4791500D01*
Y4876500D01*
X926374Y4900886D01*
X912560Y4921560D01*
X891886Y4935374D01*
X867500Y4940224D01*
D02*
G37*
G36*
X2785500Y4691730D02*
X2680700D01*
Y4592700D01*
X2854730D01*
Y4622500D01*
X2849460Y4648993D01*
X2834453Y4671453D01*
X2811993Y4686460D01*
X2785500Y4691730D01*
D02*
G37*
G36*
X867500D02*
X762700D01*
Y4592700D01*
X936730D01*
Y4622500D01*
X931460Y4648993D01*
X916453Y4671453D01*
X893993Y4686460D01*
X867500Y4691730D01*
D02*
G37*
G36*
X737300D02*
X632500D01*
X606006Y4686460D01*
X583547Y4671453D01*
X568539Y4648993D01*
X563270Y4622500D01*
Y4592700D01*
X737300D01*
Y4691730D01*
D02*
G37*
G36*
X2655300D02*
X2550500D01*
X2524007Y4686460D01*
X2501547Y4671453D01*
X2486540Y4648993D01*
X2481270Y4622500D01*
Y4592700D01*
X2655300D01*
Y4691730D01*
D02*
G37*
G36*
X936730Y4567300D02*
X750000D01*
X563270D01*
Y4537500D01*
X568539Y4511007D01*
X575436Y4500686D01*
X567418Y4485686D01*
X410784D01*
Y4510000D01*
X407679Y4525607D01*
X398838Y4538838D01*
X385607Y4547679D01*
X370000Y4550783D01*
X330000D01*
X314393Y4547679D01*
X301162Y4538838D01*
X292321Y4525607D01*
X289217Y4510000D01*
Y4470000D01*
X292321Y4454393D01*
X301162Y4441162D01*
X314393Y4432321D01*
X330000Y4429216D01*
X354295D01*
X367015Y4415925D01*
X366692Y4407159D01*
X340219Y4380686D01*
X305000D01*
X291344Y4377969D01*
X279766Y4370234D01*
X279020Y4369117D01*
X260980D01*
X260234Y4370234D01*
X248656Y4377969D01*
X235000Y4380686D01*
X225686D01*
Y4430000D01*
X250000D01*
Y4550000D01*
X130000D01*
Y4430000D01*
X154314D01*
Y4360000D01*
X157031Y4346344D01*
X164766Y4334767D01*
X169314Y4330218D01*
Y4315000D01*
X172031Y4301344D01*
X179766Y4289766D01*
X191344Y4282031D01*
X205000Y4279314D01*
X235000D01*
X248656Y4282031D01*
X260234Y4289766D01*
X260980Y4290883D01*
X279020D01*
X279766Y4289766D01*
X291344Y4282031D01*
X305000Y4279314D01*
X335000D01*
X348656Y4282031D01*
X360233Y4289766D01*
X367969Y4301344D01*
X370315Y4313139D01*
X380234Y4319766D01*
X414782Y4354314D01*
X568775D01*
Y4283500D01*
X573626Y4259114D01*
X587440Y4238440D01*
X608113Y4224626D01*
X632500Y4219776D01*
X867500D01*
X891886Y4224626D01*
X912560Y4238440D01*
X926374Y4259114D01*
X931224Y4283500D01*
Y4368500D01*
X926374Y4392886D01*
X922079Y4399314D01*
X930096Y4414314D01*
X1405218D01*
X1772766Y4046766D01*
X1784344Y4039031D01*
X1798000Y4036314D01*
X2486776D01*
Y4029500D01*
X2491626Y4005114D01*
X2505440Y3984440D01*
X2526114Y3970626D01*
X2550500Y3965776D01*
X2632314D01*
Y3924224D01*
X2550500D01*
X2526114Y3919374D01*
X2505440Y3905560D01*
X2491626Y3884886D01*
X2486776Y3860500D01*
Y3826686D01*
X2481000D01*
X2467344Y3823969D01*
X2455766Y3816233D01*
X2334766Y3695234D01*
X2327031Y3683656D01*
X2324314Y3670000D01*
Y1770000D01*
X2327031Y1756344D01*
X2334766Y1744766D01*
X2444767Y1634766D01*
X2456344Y1627031D01*
X2470000Y1624314D01*
X2490576D01*
X2498594Y1609314D01*
X2491626Y1598886D01*
X2486776Y1574500D01*
Y1489500D01*
X2491626Y1465114D01*
X2505440Y1444440D01*
X2526114Y1430626D01*
X2550500Y1425776D01*
X2785500D01*
X2809886Y1430626D01*
X2830560Y1444440D01*
X2844374Y1465114D01*
X2849224Y1489500D01*
X2864224Y1495308D01*
X2894766Y1464766D01*
X2906344Y1457031D01*
X2920000Y1454314D01*
X2952905D01*
X2953069Y1454069D01*
X2963819Y1446886D01*
X2976500Y1444363D01*
X3171500D01*
X3184181Y1446886D01*
X3194931Y1454069D01*
X3195095Y1454314D01*
X3209928D01*
X3211406Y1439314D01*
X3210720Y1439178D01*
X3189501Y1425000D01*
X3175322Y1403780D01*
X3170343Y1378750D01*
Y1352700D01*
X3277000D01*
X3383657D01*
Y1378750D01*
X3378678Y1403780D01*
X3364499Y1425000D01*
X3343280Y1439178D01*
X3342595Y1439314D01*
X3344072Y1454314D01*
X3358905D01*
X3359069Y1454069D01*
X3369819Y1446886D01*
X3382500Y1444363D01*
X3577500D01*
X3590181Y1446886D01*
X3600931Y1454069D01*
X3608114Y1464819D01*
X3610637Y1477500D01*
Y1502500D01*
X3608114Y1515181D01*
X3604824Y1530176D01*
X3613201Y1542712D01*
X3616102Y1557300D01*
X3480000D01*
Y1582700D01*
X3616102D01*
X3613201Y1597288D01*
X3604824Y1609824D01*
X3608114Y1624819D01*
X3610637Y1637500D01*
Y1662500D01*
X3608114Y1675181D01*
X3600931Y1685931D01*
Y1694069D01*
X3608114Y1704819D01*
X3610637Y1717500D01*
Y1742500D01*
X3608114Y1755181D01*
X3604824Y1770176D01*
X3613201Y1782712D01*
X3616102Y1797300D01*
X3480000D01*
X3343897D01*
X3344685Y1793341D01*
X3331928Y1780585D01*
X3330091Y1780950D01*
X3310582Y1777070D01*
X3294043Y1766019D01*
X3282992Y1749480D01*
X3282695Y1747988D01*
X3267401D01*
X3267099Y1749509D01*
X3256048Y1766048D01*
X3239509Y1777099D01*
X3222068Y1780568D01*
X3218845Y1782429D01*
X3209482Y1794182D01*
X3210103Y1797300D01*
X2937897D01*
X2940799Y1782712D01*
X2949175Y1770176D01*
X2945886Y1755181D01*
X2943363Y1742500D01*
Y1717500D01*
X2945886Y1704819D01*
X2953069Y1694069D01*
Y1685931D01*
X2945886Y1675181D01*
X2943363Y1662500D01*
Y1637500D01*
X2945886Y1624820D01*
X2949175Y1609824D01*
X2940799Y1597288D01*
X2937897Y1582700D01*
X3074000D01*
Y1557300D01*
X2937897D01*
X2940799Y1542712D01*
X2927788Y1537089D01*
X2927473Y1537026D01*
X2915686Y1547379D01*
Y1590000D01*
X2912969Y1603656D01*
X2905234Y1615234D01*
X2836260Y1684208D01*
X2835159Y1686645D01*
X2834236Y1703941D01*
X2844374Y1719114D01*
X2849224Y1743500D01*
Y1828500D01*
X2844374Y1852886D01*
X2830560Y1873560D01*
X2809886Y1887374D01*
X2785500Y1892224D01*
X2550500D01*
X2526114Y1887374D01*
X2505440Y1873560D01*
X2491626Y1852886D01*
X2486776Y1828500D01*
Y1743500D01*
X2491212Y1721196D01*
X2490504Y1717228D01*
X2483128Y1704832D01*
X2476603Y1703864D01*
X2395686Y1784782D01*
Y3655218D01*
X2480794Y3740326D01*
X2500105Y3738424D01*
X2505440Y3730440D01*
X2526114Y3716626D01*
X2550500Y3711776D01*
X2785500D01*
X2809886Y3716626D01*
X2830560Y3730440D01*
X2844374Y3751114D01*
X2849224Y3775500D01*
Y3782314D01*
X3009776D01*
Y3747500D01*
X3014626Y3723114D01*
X3028440Y3702440D01*
X3049114Y3688626D01*
X3073500Y3683776D01*
X3198500D01*
X3222887Y3688626D01*
X3243560Y3702440D01*
X3257374Y3723114D01*
X3262225Y3747500D01*
Y3832500D01*
X3257374Y3856886D01*
X3243560Y3877560D01*
X3222887Y3891374D01*
X3198500Y3896224D01*
X3073500D01*
X3049114Y3891374D01*
X3028440Y3877560D01*
X3014626Y3856886D01*
X3013990Y3853686D01*
X2849224D01*
Y3860500D01*
X2844374Y3884886D01*
X2830560Y3905560D01*
X2809886Y3919374D01*
X2785500Y3924224D01*
X2703686D01*
Y3965776D01*
X2785500D01*
X2809886Y3970626D01*
X2830560Y3984440D01*
X2844374Y4005114D01*
X2849224Y4029500D01*
Y4037751D01*
X2855656Y4039031D01*
X2867234Y4046766D01*
X3093819Y4273352D01*
X3160000D01*
X3175307Y4279692D01*
X3179314Y4289366D01*
X3194314Y4286382D01*
Y4149000D01*
X3063500D01*
X3011000Y4096500D01*
Y3991500D01*
X3063500Y3939000D01*
X3208500D01*
X3261000Y3991500D01*
Y4096500D01*
X3259038Y4098461D01*
X3262969Y4104344D01*
X3265459Y4116861D01*
X3268827Y4119015D01*
X3280686Y4122847D01*
X3305975Y4097558D01*
X3303775Y4086500D01*
Y4001500D01*
X3308626Y3977114D01*
X3322440Y3956440D01*
X3343113Y3942626D01*
X3367500Y3937776D01*
X3492500D01*
X3516887Y3942626D01*
X3537560Y3956440D01*
X3549314Y3974031D01*
X3564314Y3971134D01*
Y3874239D01*
X3549314Y3869688D01*
X3541453Y3881453D01*
X3518993Y3896460D01*
X3492500Y3901730D01*
X3442700D01*
Y3790000D01*
Y3678270D01*
X3492500D01*
X3518993Y3683540D01*
X3541453Y3698547D01*
X3549314Y3710312D01*
X3564314Y3705761D01*
Y3438560D01*
X3561344Y3437969D01*
X3552275Y3431910D01*
X3549766Y3430234D01*
X3534227Y3433977D01*
X3534127Y3434127D01*
X3520763Y3443056D01*
X3505000Y3446191D01*
X3502700D01*
Y3390000D01*
Y3333809D01*
X3505000D01*
X3520763Y3336944D01*
X3534127Y3345873D01*
X3534227Y3346023D01*
X3549766Y3349766D01*
X3552275Y3348090D01*
X3561344Y3342031D01*
X3564314Y3341440D01*
Y3055686D01*
X3500000D01*
X3499753Y3055637D01*
X3382500D01*
X3369819Y3053114D01*
X3359069Y3045931D01*
X3358905Y3045686D01*
X3207493D01*
X3203970Y3050312D01*
X3207295Y3070187D01*
X3214499Y3075000D01*
X3228678Y3096220D01*
X3233656Y3121250D01*
Y3147300D01*
X3127000D01*
X3020343D01*
Y3121250D01*
X3025322Y3096220D01*
X3039500Y3075000D01*
X3046031Y3070637D01*
X3041481Y3055637D01*
X2976500D01*
X2963819Y3053114D01*
X2953069Y3045931D01*
X2945886Y3035181D01*
X2943363Y3022500D01*
Y2997500D01*
X2945886Y2984820D01*
X2949175Y2969824D01*
X2940799Y2957288D01*
X2937897Y2942700D01*
X3210103D01*
X3207201Y2957288D01*
X3205847Y2959314D01*
X3213865Y2974314D01*
X3340135D01*
X3348153Y2959314D01*
X3346799Y2957288D01*
X3343897Y2942700D01*
X3480000D01*
X3616102D01*
X3613201Y2957288D01*
X3604824Y2969824D01*
X3608114Y2984819D01*
X3610637Y2997500D01*
Y2997743D01*
X3625234Y3012340D01*
X3632969Y3023917D01*
X3635686Y3037574D01*
Y3357926D01*
X3637969Y3361344D01*
X3640686Y3375000D01*
Y3405000D01*
X3637969Y3418656D01*
X3635686Y3422074D01*
Y4100000D01*
X3632969Y4113657D01*
X3625234Y4125234D01*
X3490686Y4259782D01*
Y4320000D01*
Y4450000D01*
X3487969Y4463656D01*
X3480234Y4475233D01*
X3468656Y4482969D01*
X3459470Y4484796D01*
X3455000Y4486648D01*
X3380000D01*
X3364693Y4480307D01*
X3358352Y4465000D01*
Y4415686D01*
X3330000D01*
X3316344Y4412969D01*
X3304766Y4405234D01*
X3274766Y4375234D01*
X3274020Y4374117D01*
X3255980D01*
X3255234Y4375234D01*
X3225234Y4405234D01*
X3213656Y4412969D01*
X3200000Y4415686D01*
X3192254D01*
X3181648Y4426292D01*
X3181648Y4465000D01*
X3175308Y4480307D01*
X3175307Y4480307D01*
X3160000Y4486648D01*
X3085000D01*
X3080530Y4484796D01*
X3071344Y4482969D01*
X3059767Y4475233D01*
X3052031Y4463656D01*
X3049314Y4450000D01*
Y4329782D01*
X2858490Y4138957D01*
X2841503Y4143183D01*
X2830560Y4159560D01*
X2809886Y4173374D01*
X2785500Y4178224D01*
X2550500D01*
X2526114Y4173374D01*
X2505440Y4159560D01*
X2491626Y4138886D01*
X2486776Y4114500D01*
Y4107686D01*
X1812781D01*
X1445234Y4475234D01*
X1433656Y4482969D01*
X1420000Y4485686D01*
X932582D01*
X924564Y4500686D01*
X931460Y4511007D01*
X936730Y4537500D01*
Y4567300D01*
D02*
G37*
G36*
X2854730D02*
X2680700D01*
Y4468270D01*
X2785500D01*
X2811993Y4473540D01*
X2834453Y4488547D01*
X2849460Y4511007D01*
X2854730Y4537500D01*
Y4567300D01*
D02*
G37*
G36*
X2655300D02*
X2481270D01*
Y4537500D01*
X2486540Y4511007D01*
X2501547Y4488547D01*
X2524007Y4473540D01*
X2550500Y4468270D01*
X2655300D01*
Y4567300D01*
D02*
G37*
G36*
X2785500Y4432224D02*
X2550500D01*
X2526114Y4427374D01*
X2505440Y4413560D01*
X2491626Y4392886D01*
X2486776Y4368500D01*
Y4283500D01*
X2491626Y4259114D01*
X2505440Y4238440D01*
X2526114Y4224626D01*
X2550500Y4219776D01*
X2785500D01*
X2809886Y4224626D01*
X2830560Y4238440D01*
X2844374Y4259114D01*
X2849224Y4283500D01*
Y4368500D01*
X2844374Y4392886D01*
X2830560Y4413560D01*
X2809886Y4427374D01*
X2785500Y4432224D01*
D02*
G37*
G36*
X867500Y4178224D02*
X632500D01*
X608113Y4173374D01*
X587440Y4159560D01*
X573626Y4138886D01*
X568775Y4114500D01*
Y4029500D01*
X573626Y4005114D01*
X587440Y3984440D01*
X608113Y3970626D01*
X632500Y3965776D01*
X867500D01*
X891886Y3970626D01*
X912560Y3984440D01*
X926374Y4005114D01*
X931224Y4029500D01*
Y4114500D01*
X926374Y4138886D01*
X912560Y4159560D01*
X891886Y4173374D01*
X867500Y4178224D01*
D02*
G37*
G36*
X3417300Y3901730D02*
X3367500D01*
X3341007Y3896460D01*
X3318547Y3881453D01*
X3303539Y3858993D01*
X3298270Y3832500D01*
Y3802700D01*
X3417300D01*
Y3901730D01*
D02*
G37*
G36*
X867500Y3924224D02*
X632500D01*
X608113Y3919374D01*
X587440Y3905560D01*
X573626Y3884886D01*
X568775Y3860500D01*
Y3775500D01*
X573626Y3751114D01*
X587440Y3730440D01*
X608113Y3716626D01*
X632500Y3711776D01*
X867500D01*
X891886Y3716626D01*
X912560Y3730440D01*
X926374Y3751114D01*
X931224Y3775500D01*
Y3860500D01*
X926374Y3884886D01*
X912560Y3905560D01*
X891886Y3919374D01*
X867500Y3924224D01*
D02*
G37*
G36*
X3417300Y3777300D02*
X3298270D01*
Y3747500D01*
X3303539Y3721007D01*
X3318547Y3698547D01*
X3341007Y3683540D01*
X3367500Y3678270D01*
X3417300D01*
Y3777300D01*
D02*
G37*
G36*
X2785500Y3670224D02*
X2550500D01*
X2526114Y3665374D01*
X2505440Y3651560D01*
X2491626Y3630886D01*
X2486776Y3606500D01*
Y3521500D01*
X2491626Y3497114D01*
X2505440Y3476440D01*
X2526114Y3462626D01*
X2550500Y3457776D01*
X2785500D01*
X2809886Y3462626D01*
X2830560Y3476440D01*
X2844374Y3497114D01*
X2849224Y3521500D01*
Y3606500D01*
X2844374Y3630886D01*
X2830560Y3651560D01*
X2809886Y3665374D01*
X2785500Y3670224D01*
D02*
G37*
G36*
X867500D02*
X632500D01*
X608113Y3665374D01*
X587440Y3651560D01*
X573626Y3630886D01*
X568775Y3606500D01*
Y3521500D01*
X573626Y3497114D01*
X587440Y3476440D01*
X608113Y3462626D01*
X632500Y3457776D01*
X867500D01*
X891886Y3462626D01*
X912560Y3476440D01*
X926374Y3497114D01*
X931224Y3521500D01*
Y3606500D01*
X926374Y3630886D01*
X912560Y3651560D01*
X891886Y3665374D01*
X867500Y3670224D01*
D02*
G37*
G36*
X3477300Y3446191D02*
X3475000D01*
X3459237Y3443056D01*
X3445873Y3434127D01*
X3436944Y3420763D01*
X3433809Y3405000D01*
Y3402700D01*
X3477300D01*
Y3446191D01*
D02*
G37*
G36*
Y3377300D02*
X3433809D01*
Y3375000D01*
X3436944Y3359237D01*
X3445873Y3345873D01*
X3459237Y3336944D01*
X3475000Y3333809D01*
X3477300D01*
Y3377300D01*
D02*
G37*
G36*
X2785500Y3421730D02*
X2680700D01*
Y3322700D01*
X2854730D01*
Y3352500D01*
X2849460Y3378993D01*
X2834453Y3401453D01*
X2811993Y3416460D01*
X2785500Y3421730D01*
D02*
G37*
G36*
X867500D02*
X762700D01*
Y3322700D01*
X936730D01*
Y3352500D01*
X931460Y3378993D01*
X916453Y3401453D01*
X893993Y3416460D01*
X867500Y3421730D01*
D02*
G37*
G36*
X737300D02*
X632500D01*
X606006Y3416460D01*
X583547Y3401453D01*
X568539Y3378993D01*
X563270Y3352500D01*
Y3322700D01*
X737300D01*
Y3421730D01*
D02*
G37*
G36*
X2655300D02*
X2550500D01*
X2524007Y3416460D01*
X2501547Y3401453D01*
X2486540Y3378993D01*
X2481270Y3352500D01*
Y3322700D01*
X2655300D01*
Y3421730D01*
D02*
G37*
G36*
X2854730Y3297300D02*
X2680700D01*
Y3198270D01*
X2785500D01*
X2811993Y3203540D01*
X2834453Y3218547D01*
X2849460Y3241007D01*
X2854730Y3267500D01*
Y3297300D01*
D02*
G37*
G36*
X2655300D02*
X2481270D01*
Y3267500D01*
X2486540Y3241007D01*
X2501547Y3218547D01*
X2524007Y3203540D01*
X2550500Y3198270D01*
X2655300D01*
Y3297300D01*
D02*
G37*
G36*
X936730D02*
X762700D01*
Y3198270D01*
X867500D01*
X893993Y3203540D01*
X916453Y3218547D01*
X931460Y3241007D01*
X936730Y3267500D01*
Y3297300D01*
D02*
G37*
G36*
X737300D02*
X563270D01*
Y3267500D01*
X568539Y3241007D01*
X583547Y3218547D01*
X606006Y3203540D01*
X632500Y3198270D01*
X737300D01*
Y3297300D01*
D02*
G37*
G36*
X3168250Y3264157D02*
X3139700D01*
Y3172700D01*
X3233656D01*
Y3198750D01*
X3228678Y3223780D01*
X3214499Y3245000D01*
X3193280Y3259178D01*
X3168250Y3264157D01*
D02*
G37*
G36*
X3114300D02*
X3085750D01*
X3060720Y3259178D01*
X3039500Y3245000D01*
X3025322Y3223780D01*
X3020343Y3198750D01*
Y3172700D01*
X3114300D01*
Y3264157D01*
D02*
G37*
G36*
X2785500Y3162224D02*
X2550500D01*
X2526114Y3157374D01*
X2505440Y3143560D01*
X2491626Y3122886D01*
X2486776Y3098500D01*
Y3013500D01*
X2491626Y2989114D01*
X2505440Y2968440D01*
X2526114Y2954626D01*
X2550500Y2949776D01*
X2785500D01*
X2809886Y2954626D01*
X2830560Y2968440D01*
X2844374Y2989114D01*
X2849224Y3013500D01*
Y3098500D01*
X2844374Y3122886D01*
X2830560Y3143560D01*
X2809886Y3157374D01*
X2785500Y3162224D01*
D02*
G37*
G36*
X867500D02*
X632500D01*
X608113Y3157374D01*
X587440Y3143560D01*
X573626Y3122886D01*
X568775Y3098500D01*
Y3013500D01*
X573626Y2989114D01*
X587440Y2968440D01*
X608113Y2954626D01*
X632500Y2949776D01*
X867500D01*
X891886Y2954626D01*
X912560Y2968440D01*
X926374Y2989114D01*
X931224Y3013500D01*
Y3098500D01*
X926374Y3122886D01*
X912560Y3143560D01*
X891886Y3157374D01*
X867500Y3162224D01*
D02*
G37*
G36*
X3210103Y2917300D02*
X2937897D01*
X2938435Y2914596D01*
X2934945Y2908962D01*
X2926008Y2900185D01*
X2910491Y2897099D01*
X2893952Y2886048D01*
X2882901Y2869509D01*
X2879020Y2850000D01*
X2882901Y2830491D01*
X2893952Y2813952D01*
X2910491Y2802901D01*
X2930000Y2799020D01*
X2932057Y2799430D01*
X2944168Y2786545D01*
X2943363Y2782500D01*
Y2757500D01*
X2945886Y2744820D01*
X2949175Y2729824D01*
X2940799Y2717288D01*
X2937897Y2702700D01*
X3210103D01*
X3209482Y2705819D01*
X3218845Y2717571D01*
X3222068Y2719432D01*
X3239509Y2722901D01*
X3256048Y2733952D01*
X3267099Y2750491D01*
X3270979Y2770000D01*
X3267099Y2789509D01*
X3256048Y2806048D01*
X3239509Y2817099D01*
X3220000Y2820980D01*
X3215636Y2820111D01*
X3203750Y2833041D01*
X3204637Y2837500D01*
Y2862500D01*
X3202114Y2875181D01*
X3198824Y2890176D01*
X3207201Y2902712D01*
X3210103Y2917300D01*
D02*
G37*
G36*
X3616102D02*
X3480000D01*
X3343897D01*
X3346799Y2902712D01*
X3355175Y2890176D01*
X3351886Y2875181D01*
X3349363Y2862500D01*
Y2837500D01*
X3351886Y2824819D01*
X3359069Y2814069D01*
Y2805931D01*
X3351886Y2795181D01*
X3349363Y2782500D01*
Y2757500D01*
X3351886Y2744820D01*
X3355175Y2729824D01*
X3346799Y2717288D01*
X3343897Y2702700D01*
X3480000D01*
X3616102D01*
X3613201Y2717288D01*
X3604824Y2729824D01*
X3608114Y2744819D01*
X3610637Y2757500D01*
Y2782500D01*
X3608114Y2795181D01*
X3600931Y2805931D01*
Y2814069D01*
X3608114Y2824819D01*
X3610637Y2837500D01*
Y2862500D01*
X3608114Y2875181D01*
X3604824Y2890176D01*
X3613201Y2902712D01*
X3616102Y2917300D01*
D02*
G37*
G36*
X2785500Y2908224D02*
X2550500D01*
X2526114Y2903374D01*
X2505440Y2889560D01*
X2491626Y2868886D01*
X2486776Y2844500D01*
Y2759500D01*
X2491626Y2735114D01*
X2505440Y2714440D01*
X2526114Y2700626D01*
X2550500Y2695776D01*
X2785500D01*
X2809886Y2700626D01*
X2830560Y2714440D01*
X2844374Y2735114D01*
X2849224Y2759500D01*
Y2844500D01*
X2844374Y2868886D01*
X2830560Y2889560D01*
X2809886Y2903374D01*
X2785500Y2908224D01*
D02*
G37*
G36*
X867500D02*
X632500D01*
X608113Y2903374D01*
X587440Y2889560D01*
X573626Y2868886D01*
X568775Y2844500D01*
Y2759500D01*
X573626Y2735114D01*
X587440Y2714440D01*
X608113Y2700626D01*
X632500Y2695776D01*
X867500D01*
X891886Y2700626D01*
X912560Y2714440D01*
X926374Y2735114D01*
X931224Y2759500D01*
Y2844500D01*
X926374Y2868886D01*
X912560Y2889560D01*
X891886Y2903374D01*
X867500Y2908224D01*
D02*
G37*
G36*
Y2654224D02*
X632500D01*
X608113Y2649374D01*
X587440Y2635560D01*
X573626Y2614886D01*
X568775Y2590500D01*
Y2540686D01*
X465000D01*
X451344Y2537969D01*
X439766Y2530234D01*
X439020Y2529117D01*
X420980D01*
X420234Y2530234D01*
X408656Y2537969D01*
X395000Y2540686D01*
X365000D01*
X351344Y2537969D01*
X339775Y2530240D01*
X329509Y2537099D01*
X310000Y2540980D01*
X290491Y2537099D01*
X273952Y2526048D01*
X262901Y2509509D01*
X259020Y2490000D01*
X262901Y2470491D01*
X273952Y2453952D01*
X290491Y2442901D01*
X310000Y2439021D01*
X329509Y2442901D01*
X339775Y2449761D01*
X351344Y2442031D01*
X365000Y2439314D01*
X395000D01*
X408656Y2442031D01*
X420234Y2449766D01*
X420980Y2450883D01*
X439020D01*
X439766Y2449766D01*
X451344Y2442031D01*
X465000Y2439314D01*
X495000D01*
X508656Y2442031D01*
X520233Y2449766D01*
X527969Y2461344D01*
X529554Y2469314D01*
X581510D01*
X587440Y2460440D01*
X608113Y2446626D01*
X632500Y2441776D01*
X867500D01*
X891886Y2446626D01*
X912560Y2460440D01*
X926374Y2481114D01*
X931224Y2505500D01*
Y2590500D01*
X926374Y2614886D01*
X912560Y2635560D01*
X891886Y2649374D01*
X867500Y2654224D01*
D02*
G37*
G36*
X3210103Y2677300D02*
X2937897D01*
X2940799Y2662712D01*
X2949175Y2650176D01*
X2945886Y2635181D01*
X2943363Y2622500D01*
Y2597500D01*
X2945886Y2584819D01*
X2953069Y2574069D01*
Y2565931D01*
X2945886Y2555181D01*
X2943363Y2542500D01*
Y2517500D01*
X2945886Y2504819D01*
X2949175Y2489824D01*
X2940799Y2477288D01*
X2937897Y2462700D01*
X3210103D01*
X3207201Y2477288D01*
X3198824Y2489824D01*
X3202114Y2504819D01*
X3204637Y2517500D01*
Y2542500D01*
X3202114Y2555181D01*
X3194931Y2565931D01*
Y2574069D01*
X3202114Y2584819D01*
X3204637Y2597500D01*
Y2622500D01*
X3202114Y2635181D01*
X3198824Y2650176D01*
X3207201Y2662712D01*
X3210103Y2677300D01*
D02*
G37*
G36*
X3616102D02*
X3480000D01*
X3343897D01*
X3346799Y2662712D01*
X3355175Y2650176D01*
X3351886Y2635181D01*
X3349363Y2622500D01*
Y2597500D01*
X3351886Y2584819D01*
X3359069Y2574069D01*
Y2565931D01*
X3351886Y2555181D01*
X3349363Y2542500D01*
Y2517500D01*
X3351886Y2504819D01*
X3355175Y2489824D01*
X3346799Y2477288D01*
X3343897Y2462700D01*
X3480000D01*
X3616102D01*
X3613201Y2477288D01*
X3604824Y2489824D01*
X3608114Y2504819D01*
X3610637Y2517500D01*
Y2542500D01*
X3608114Y2555181D01*
X3600931Y2565931D01*
Y2574069D01*
X3608114Y2584819D01*
X3610637Y2597500D01*
Y2622500D01*
X3608114Y2635181D01*
X3604824Y2650176D01*
X3613201Y2662712D01*
X3616102Y2677300D01*
D02*
G37*
G36*
X2785500Y2654224D02*
X2550500D01*
X2526114Y2649374D01*
X2505440Y2635560D01*
X2491626Y2614886D01*
X2486776Y2590500D01*
Y2505500D01*
X2491626Y2481114D01*
X2505440Y2460440D01*
X2526114Y2446626D01*
X2550500Y2441776D01*
X2785500D01*
X2809886Y2446626D01*
X2830560Y2460440D01*
X2844374Y2481114D01*
X2849224Y2505500D01*
Y2590500D01*
X2844374Y2614886D01*
X2830560Y2635560D01*
X2809886Y2649374D01*
X2785500Y2654224D01*
D02*
G37*
G36*
Y2400224D02*
X2550500D01*
X2526114Y2395374D01*
X2505440Y2381560D01*
X2491626Y2360886D01*
X2486776Y2336500D01*
Y2251500D01*
X2491626Y2227114D01*
X2505440Y2206440D01*
X2526114Y2192626D01*
X2550500Y2187776D01*
X2785500D01*
X2809886Y2192626D01*
X2830560Y2206440D01*
X2844374Y2227114D01*
X2849224Y2251500D01*
Y2336500D01*
X2844374Y2360886D01*
X2830560Y2381560D01*
X2809886Y2395374D01*
X2785500Y2400224D01*
D02*
G37*
G36*
X310000Y2410980D02*
X290491Y2407099D01*
X273952Y2396048D01*
X262901Y2379509D01*
X259020Y2360000D01*
X262901Y2340491D01*
X273952Y2323952D01*
X290491Y2312901D01*
X310000Y2309021D01*
X329509Y2312901D01*
X339775Y2319761D01*
X351344Y2312031D01*
X365000Y2309314D01*
X395000D01*
X408656Y2312031D01*
X420234Y2319767D01*
X420980Y2320883D01*
X439020D01*
X439766Y2319767D01*
X451344Y2312031D01*
X465000Y2309314D01*
X568775D01*
Y2251500D01*
X573626Y2227114D01*
X587440Y2206440D01*
X608113Y2192626D01*
X632500Y2187776D01*
X867500D01*
X891886Y2192626D01*
X912560Y2206440D01*
X926374Y2227114D01*
X931224Y2251500D01*
Y2336500D01*
X926374Y2360886D01*
X912560Y2381560D01*
X891886Y2395374D01*
X867500Y2400224D01*
X632500D01*
X608113Y2395374D01*
X587440Y2381560D01*
X586856Y2380686D01*
X529554D01*
X527969Y2388656D01*
X520233Y2400234D01*
X508656Y2407969D01*
X495000Y2410686D01*
X465000D01*
X451344Y2407969D01*
X439766Y2400234D01*
X439020Y2399117D01*
X420980D01*
X420234Y2400234D01*
X408656Y2407969D01*
X395000Y2410686D01*
X365000D01*
X351344Y2407969D01*
X339775Y2400240D01*
X329509Y2407099D01*
X310000Y2410980D01*
D02*
G37*
G36*
X3210103Y2437300D02*
X2937897D01*
X2940799Y2422712D01*
X2949175Y2410176D01*
X2945886Y2395181D01*
X2943363Y2382500D01*
Y2357500D01*
X2945886Y2344819D01*
X2953069Y2334069D01*
Y2325931D01*
X2945886Y2315181D01*
X2943363Y2302500D01*
Y2277500D01*
X2945886Y2264819D01*
X2953069Y2254069D01*
Y2245931D01*
X2945886Y2235181D01*
X2943363Y2222500D01*
Y2197500D01*
X2945886Y2184819D01*
X2953069Y2174069D01*
Y2165931D01*
X2945886Y2155181D01*
X2943363Y2142500D01*
Y2117500D01*
X2945886Y2104820D01*
X2949175Y2089824D01*
X2940799Y2077288D01*
X2937897Y2062700D01*
X3210103D01*
X3207201Y2077288D01*
X3198824Y2089824D01*
X3202114Y2104819D01*
X3204637Y2117500D01*
Y2142500D01*
X3202114Y2155181D01*
X3194931Y2165931D01*
Y2174069D01*
X3202114Y2184819D01*
X3204637Y2197500D01*
Y2222500D01*
X3202114Y2235181D01*
X3194931Y2245931D01*
Y2254069D01*
X3202114Y2264819D01*
X3204637Y2277500D01*
Y2302500D01*
X3202114Y2315181D01*
X3194931Y2325931D01*
Y2334069D01*
X3202114Y2344819D01*
X3204637Y2357500D01*
Y2382500D01*
X3202114Y2395181D01*
X3198824Y2410176D01*
X3207201Y2422712D01*
X3210103Y2437300D01*
D02*
G37*
G36*
X3616102D02*
X3480000D01*
X3343897D01*
X3346799Y2422712D01*
X3355175Y2410176D01*
X3351886Y2395181D01*
X3349363Y2382500D01*
Y2357500D01*
X3351886Y2344819D01*
X3359069Y2334069D01*
Y2325931D01*
X3351886Y2315181D01*
X3349363Y2302500D01*
Y2277500D01*
X3351886Y2264819D01*
X3359069Y2254069D01*
Y2245931D01*
X3351886Y2235181D01*
X3349363Y2222500D01*
Y2197500D01*
X3351886Y2184819D01*
X3359069Y2174069D01*
Y2165931D01*
X3351886Y2155181D01*
X3349363Y2142500D01*
Y2117500D01*
X3351886Y2104820D01*
X3355175Y2089824D01*
X3346799Y2077288D01*
X3343897Y2062700D01*
X3480000D01*
X3616102D01*
X3613201Y2077288D01*
X3604824Y2089824D01*
X3608114Y2104819D01*
X3610637Y2117500D01*
Y2142500D01*
X3608114Y2155181D01*
X3600931Y2165931D01*
Y2174069D01*
X3608114Y2184819D01*
X3610637Y2197500D01*
Y2222500D01*
X3608114Y2235181D01*
X3600931Y2245931D01*
Y2254069D01*
X3608114Y2264819D01*
X3610637Y2277500D01*
Y2302500D01*
X3608114Y2315181D01*
X3600931Y2325931D01*
Y2334069D01*
X3608114Y2344819D01*
X3610637Y2357500D01*
Y2382500D01*
X3608114Y2395181D01*
X3604824Y2410176D01*
X3613201Y2422712D01*
X3616102Y2437300D01*
D02*
G37*
G36*
X2785500Y2151730D02*
X2680700D01*
Y2052700D01*
X2854730D01*
Y2082500D01*
X2849460Y2108993D01*
X2834453Y2131453D01*
X2811993Y2146460D01*
X2785500Y2151730D01*
D02*
G37*
G36*
X867500D02*
X762700D01*
Y2052700D01*
X936730D01*
Y2082500D01*
X931460Y2108993D01*
X916453Y2131453D01*
X893993Y2146460D01*
X867500Y2151730D01*
D02*
G37*
G36*
X737300D02*
X632500D01*
X606006Y2146460D01*
X583547Y2131453D01*
X568539Y2108993D01*
X563270Y2082500D01*
Y2052700D01*
X737300D01*
Y2151730D01*
D02*
G37*
G36*
X2655300D02*
X2550500D01*
X2524007Y2146460D01*
X2501547Y2131453D01*
X2486540Y2108993D01*
X2481270Y2082500D01*
Y2052700D01*
X2655300D01*
Y2151730D01*
D02*
G37*
G36*
X2854730Y2027300D02*
X2680700D01*
Y1928270D01*
X2785500D01*
X2811993Y1933540D01*
X2834453Y1948547D01*
X2849460Y1971007D01*
X2854730Y1997500D01*
Y2027300D01*
D02*
G37*
G36*
X2655300D02*
X2481270D01*
Y1997500D01*
X2486540Y1971007D01*
X2501547Y1948547D01*
X2524007Y1933540D01*
X2550500Y1928270D01*
X2655300D01*
Y2027300D01*
D02*
G37*
G36*
X936730D02*
X762700D01*
Y1928270D01*
X867500D01*
X893993Y1933540D01*
X916453Y1948547D01*
X931460Y1971007D01*
X936730Y1997500D01*
Y2027300D01*
D02*
G37*
G36*
X737300D02*
X563270D01*
Y1997500D01*
X568539Y1971007D01*
X583547Y1948547D01*
X606006Y1933540D01*
X632500Y1928270D01*
X737300D01*
Y2027300D01*
D02*
G37*
G36*
X3210103Y2037300D02*
X2937897D01*
X2940799Y2022712D01*
X2949175Y2010176D01*
X2945886Y1995181D01*
X2943363Y1982500D01*
Y1957500D01*
X2945886Y1944819D01*
X2953069Y1934069D01*
Y1925931D01*
X2945886Y1915181D01*
X2943363Y1902500D01*
Y1877500D01*
X2945886Y1864819D01*
X2949175Y1849824D01*
X2940799Y1837288D01*
X2937897Y1822700D01*
X3210103D01*
X3207201Y1837288D01*
X3198824Y1849824D01*
X3202114Y1864819D01*
X3204637Y1877500D01*
Y1902500D01*
X3202114Y1915181D01*
X3194931Y1925931D01*
Y1934069D01*
X3202114Y1944819D01*
X3204637Y1957500D01*
Y1982500D01*
X3202114Y1995181D01*
X3198824Y2010176D01*
X3207201Y2022712D01*
X3210103Y2037300D01*
D02*
G37*
G36*
X3616102D02*
X3480000D01*
X3343897D01*
X3346799Y2022712D01*
X3355175Y2010176D01*
X3351886Y1995181D01*
X3349363Y1982500D01*
Y1957500D01*
X3351886Y1944819D01*
X3359069Y1934069D01*
Y1925931D01*
X3351886Y1915181D01*
X3349363Y1902500D01*
Y1877500D01*
X3351886Y1864819D01*
X3355175Y1849824D01*
X3346799Y1837288D01*
X3343897Y1822700D01*
X3480000D01*
X3616102D01*
X3613201Y1837288D01*
X3604824Y1849824D01*
X3608114Y1864819D01*
X3610637Y1877500D01*
Y1902500D01*
X3608114Y1915181D01*
X3600931Y1925931D01*
Y1934069D01*
X3608114Y1944819D01*
X3610637Y1957500D01*
Y1982500D01*
X3608114Y1995181D01*
X3604824Y2010176D01*
X3613201Y2022712D01*
X3616102Y2037300D01*
D02*
G37*
G36*
X867500Y1892224D02*
X632500D01*
X608113Y1887374D01*
X587440Y1873560D01*
X573626Y1852886D01*
X568775Y1828500D01*
Y1743500D01*
X573626Y1719114D01*
X587440Y1698440D01*
X608113Y1684626D01*
X632500Y1679776D01*
X867500D01*
X891886Y1684626D01*
X912560Y1698440D01*
X926374Y1719114D01*
X931224Y1743500D01*
Y1828500D01*
X926374Y1852886D01*
X912560Y1873560D01*
X891886Y1887374D01*
X867500Y1892224D01*
D02*
G37*
G36*
Y1638224D02*
X632500D01*
X608113Y1633374D01*
X587440Y1619560D01*
X573626Y1598886D01*
X568775Y1574500D01*
Y1489500D01*
X573626Y1465114D01*
X587440Y1444440D01*
X608113Y1430626D01*
X632500Y1425776D01*
X867500D01*
X891886Y1430626D01*
X912560Y1444440D01*
X926374Y1465114D01*
X931224Y1489500D01*
Y1574500D01*
X926374Y1598886D01*
X912560Y1619560D01*
X891886Y1633374D01*
X867500Y1638224D01*
D02*
G37*
G36*
X3383657Y1327300D02*
X3289700D01*
Y1235843D01*
X3318250D01*
X3343280Y1240822D01*
X3364499Y1255001D01*
X3378678Y1276220D01*
X3383657Y1301250D01*
Y1327300D01*
D02*
G37*
G36*
X3264300D02*
X3170343D01*
Y1301250D01*
X3175322Y1276220D01*
X3189501Y1255001D01*
X3210720Y1240822D01*
X3235750Y1235843D01*
X3264300D01*
Y1327300D01*
D02*
G37*
G36*
X867500Y1384224D02*
X632500D01*
X608113Y1379374D01*
X587440Y1365560D01*
X573626Y1344886D01*
X568775Y1320500D01*
Y1235500D01*
X573626Y1211114D01*
X587440Y1190440D01*
X608113Y1176626D01*
X632500Y1171776D01*
X867500D01*
X891886Y1176626D01*
X912560Y1190440D01*
X926374Y1211114D01*
X931224Y1235500D01*
Y1320500D01*
X926374Y1344886D01*
X912560Y1365560D01*
X891886Y1379374D01*
X867500Y1384224D01*
D02*
G37*
G36*
Y1130224D02*
X632500D01*
X608113Y1125374D01*
X587440Y1111560D01*
X573626Y1090886D01*
X568775Y1066500D01*
Y981500D01*
X573626Y957114D01*
X587440Y936440D01*
X608113Y922626D01*
X632500Y917776D01*
X867500D01*
X891886Y922626D01*
X912560Y936440D01*
X926374Y957114D01*
X931224Y981500D01*
Y1066500D01*
X926374Y1090886D01*
X912560Y1111560D01*
X891886Y1125374D01*
X867500Y1130224D01*
D02*
G37*
G36*
X2785500Y1384224D02*
X2550500D01*
X2526114Y1379374D01*
X2505440Y1365560D01*
X2491626Y1344886D01*
X2486776Y1320500D01*
Y1235500D01*
X2491626Y1211114D01*
X2505440Y1190440D01*
X2526114Y1176626D01*
X2550500Y1171776D01*
X2765129D01*
X2770790Y1163302D01*
X2791250Y1142843D01*
X2782655Y1130224D01*
X2550500D01*
X2526114Y1125374D01*
X2505440Y1111560D01*
X2491626Y1090886D01*
X2486776Y1066500D01*
Y981500D01*
X2491626Y957114D01*
X2505440Y936440D01*
X2526114Y922626D01*
X2550500Y917776D01*
X2785500D01*
X2809886Y922626D01*
X2830560Y936440D01*
X2844374Y957114D01*
X2849224Y981500D01*
Y990710D01*
X2863082Y996450D01*
X2934766Y924767D01*
X2946343Y917031D01*
X2960000Y914315D01*
X2986728D01*
X2989767Y909767D01*
X3001344Y902031D01*
X3015000Y899315D01*
X3045000D01*
X3058657Y902031D01*
X3070234Y909767D01*
X3070980Y910883D01*
X3089020D01*
X3089766Y909767D01*
X3101344Y902031D01*
X3115000Y899315D01*
X3145000D01*
X3158656Y902031D01*
X3170225Y909761D01*
X3180491Y902901D01*
X3200000Y899020D01*
X3219509Y902901D01*
X3236048Y913952D01*
X3236290Y914314D01*
X3300000D01*
X3313656Y917031D01*
X3325234Y924766D01*
X3395234Y994766D01*
X3402969Y1006344D01*
X3405686Y1020000D01*
Y1113710D01*
X3406048Y1113952D01*
X3417099Y1130491D01*
X3420980Y1150000D01*
X3417099Y1169509D01*
X3406048Y1186048D01*
X3389509Y1197099D01*
X3370000Y1200980D01*
X3350491Y1197099D01*
X3333952Y1186048D01*
X3322901Y1169509D01*
X3319021Y1150000D01*
X3322901Y1130491D01*
X3333952Y1113952D01*
X3334314Y1113710D01*
Y1034782D01*
X3285218Y985686D01*
X3236290D01*
X3236048Y986048D01*
X3219509Y997099D01*
X3200000Y1000979D01*
X3180491Y997099D01*
X3170225Y990240D01*
X3158656Y997970D01*
X3145000Y1000686D01*
X3115000D01*
X3101344Y997970D01*
X3089766Y990234D01*
X3089020Y989117D01*
X3070980D01*
X3070234Y990234D01*
X3058657Y997970D01*
X3045000Y1000686D01*
X3015000D01*
X3001344Y997970D01*
X2989767Y990234D01*
X2988613Y988507D01*
X2972960Y987507D01*
X2940011Y1020456D01*
X2945751Y1034314D01*
X2986728D01*
X2989766Y1029766D01*
X3001344Y1022031D01*
X3015000Y1019314D01*
X3045000D01*
X3058656Y1022031D01*
X3070234Y1029766D01*
X3070980Y1030883D01*
X3089020D01*
X3089766Y1029766D01*
X3101344Y1022031D01*
X3115000Y1019314D01*
X3145000D01*
X3158656Y1022031D01*
X3170225Y1029760D01*
X3180491Y1022901D01*
X3200000Y1019020D01*
X3219509Y1022901D01*
X3236048Y1033952D01*
X3247099Y1050491D01*
X3250980Y1070000D01*
X3247099Y1089509D01*
X3236048Y1106048D01*
X3219509Y1117099D01*
X3200000Y1120979D01*
X3180491Y1117099D01*
X3170225Y1110239D01*
X3158656Y1117969D01*
X3145000Y1120686D01*
X3115000D01*
X3101344Y1117969D01*
X3089766Y1110233D01*
X3089020Y1109117D01*
X3070980D01*
X3070234Y1110233D01*
X3058656Y1117969D01*
X3045000Y1120686D01*
X3015000D01*
X3001344Y1117969D01*
X2989766Y1110233D01*
X2986728Y1105686D01*
X2929341D01*
X2836178Y1198849D01*
X2844374Y1211114D01*
X2849224Y1235500D01*
Y1320500D01*
X2844374Y1344886D01*
X2830560Y1365560D01*
X2809886Y1379374D01*
X2785500Y1384224D01*
D02*
G37*
G36*
Y881730D02*
X2680700D01*
Y782700D01*
X2854730D01*
Y812500D01*
X2849460Y838993D01*
X2834453Y861453D01*
X2811993Y876460D01*
X2785500Y881730D01*
D02*
G37*
G36*
X867500D02*
X762700D01*
Y782700D01*
X936730D01*
Y812500D01*
X931460Y838993D01*
X916453Y861453D01*
X893993Y876460D01*
X867500Y881730D01*
D02*
G37*
G36*
X737300D02*
X632500D01*
X606006Y876460D01*
X583547Y861453D01*
X568539Y838993D01*
X563270Y812500D01*
Y782700D01*
X737300D01*
Y881730D01*
D02*
G37*
G36*
X2655300D02*
X2550500D01*
X2524007Y876460D01*
X2501547Y861453D01*
X2486540Y838993D01*
X2481270Y812500D01*
Y782700D01*
X2655300D01*
Y881730D01*
D02*
G37*
G36*
X3200000Y780980D02*
X3180491Y777099D01*
X3170225Y770240D01*
X3158656Y777969D01*
X3145000Y780686D01*
X3115000D01*
X3101344Y777969D01*
X3089766Y770234D01*
X3089020Y769117D01*
X3070980D01*
X3070234Y770234D01*
X3058656Y777969D01*
X3045000Y780686D01*
X3015000D01*
X3001344Y777969D01*
X2989766Y770234D01*
X2982031Y758656D01*
X2979684Y746861D01*
X2969766Y740234D01*
X2832866Y603333D01*
X2830560Y603560D01*
X2809886Y617374D01*
X2785500Y622224D01*
X2550500D01*
X2526114Y617374D01*
X2505440Y603560D01*
X2491626Y582886D01*
X2486776Y558500D01*
Y473500D01*
X2491626Y449114D01*
X2505440Y428440D01*
X2526114Y414626D01*
X2550500Y409776D01*
X2785500D01*
X2809886Y414626D01*
X2814028Y417394D01*
X2828781Y410150D01*
X2829946Y399413D01*
X2796558Y366025D01*
X2785500Y368224D01*
X2550500D01*
X2526114Y363374D01*
X2505440Y349560D01*
X2491626Y328886D01*
X2486776Y304500D01*
Y219500D01*
X2491626Y195114D01*
X2505440Y174440D01*
X2526114Y160626D01*
X2550500Y155776D01*
X2785500D01*
X2809886Y160626D01*
X2830560Y174440D01*
X2844374Y195114D01*
X2849224Y219500D01*
Y304500D01*
X2847025Y315558D01*
X2895234Y363766D01*
X2902969Y375344D01*
X2905686Y389000D01*
Y485218D01*
X2990047Y569579D01*
X3001344Y562031D01*
X3015000Y559314D01*
X3045000D01*
X3058656Y562031D01*
X3070234Y569766D01*
X3070980Y570883D01*
X3089020D01*
X3089766Y569766D01*
X3101344Y562031D01*
X3115000Y559314D01*
X3145000D01*
X3158656Y562031D01*
X3170225Y569761D01*
X3180491Y562901D01*
X3200000Y559020D01*
X3219509Y562901D01*
X3236048Y573952D01*
X3247099Y590491D01*
X3250980Y610000D01*
X3247099Y629509D01*
X3236048Y646048D01*
X3219509Y657099D01*
X3200000Y660980D01*
X3180491Y657099D01*
X3170225Y650239D01*
X3158656Y657969D01*
X3145000Y660686D01*
X3115000D01*
X3101344Y657969D01*
X3089766Y650234D01*
X3089020Y649117D01*
X3070980D01*
X3070234Y650234D01*
X3058656Y657969D01*
X3045000Y660686D01*
X3024578D01*
X3016186Y675686D01*
X3018414Y679314D01*
X3045000D01*
X3058656Y682031D01*
X3070234Y689766D01*
X3070980Y690883D01*
X3089020D01*
X3089766Y689766D01*
X3101344Y682031D01*
X3115000Y679314D01*
X3145000D01*
X3158656Y682031D01*
X3170225Y689761D01*
X3180491Y682901D01*
X3200000Y679020D01*
X3219509Y682901D01*
X3236048Y693952D01*
X3247099Y710491D01*
X3250980Y730000D01*
X3247099Y749509D01*
X3236048Y766048D01*
X3219509Y777099D01*
X3200000Y780980D01*
D02*
G37*
G36*
X2854730Y757300D02*
X2680700D01*
Y658270D01*
X2785500D01*
X2811993Y663540D01*
X2834453Y678547D01*
X2849460Y701007D01*
X2854730Y727500D01*
Y757300D01*
D02*
G37*
G36*
X2655300D02*
X2481270D01*
Y727500D01*
X2486540Y701007D01*
X2501547Y678547D01*
X2524007Y663540D01*
X2550500Y658270D01*
X2655300D01*
Y757300D01*
D02*
G37*
G36*
X936730D02*
X762700D01*
Y658270D01*
X867500D01*
X893993Y663540D01*
X916453Y678547D01*
X931460Y701007D01*
X936730Y727500D01*
Y757300D01*
D02*
G37*
G36*
X737300D02*
X563270D01*
Y727500D01*
X568539Y701007D01*
X583547Y678547D01*
X606006Y663540D01*
X632500Y658270D01*
X737300D01*
Y757300D01*
D02*
G37*
G36*
X867500Y622224D02*
X632500D01*
X608113Y617374D01*
X587440Y603560D01*
X573626Y582886D01*
X568775Y558500D01*
Y473500D01*
X573626Y449114D01*
X587440Y428440D01*
X608113Y414626D01*
X632500Y409776D01*
X867500D01*
X891886Y414626D01*
X912560Y428440D01*
X926374Y449114D01*
X931224Y473500D01*
Y558500D01*
X926374Y582886D01*
X912560Y603560D01*
X891886Y617374D01*
X867500Y622224D01*
D02*
G37*
G36*
X3526000Y526955D02*
X3412700D01*
Y312700D01*
X3606955D01*
Y446000D01*
X3600793Y476980D01*
X3583244Y503244D01*
X3556980Y520793D01*
X3526000Y526955D01*
D02*
G37*
G36*
X426000D02*
X312700D01*
Y312700D01*
X506955D01*
Y446000D01*
X500793Y476980D01*
X483244Y503244D01*
X456980Y520793D01*
X426000Y526955D01*
D02*
G37*
G36*
X287300D02*
X174000D01*
X143020Y520793D01*
X116756Y503244D01*
X99207Y476980D01*
X93045Y446000D01*
Y312700D01*
X287300D01*
Y526955D01*
D02*
G37*
G36*
X3387300D02*
X3274000D01*
X3243020Y520793D01*
X3216756Y503244D01*
X3199207Y476980D01*
X3193045Y446000D01*
Y312700D01*
X3387300D01*
Y526955D01*
D02*
G37*
G36*
X867500Y368224D02*
X632500D01*
X608113Y363374D01*
X587440Y349560D01*
X573626Y328886D01*
X568775Y304500D01*
Y219500D01*
X573626Y195114D01*
X587440Y174440D01*
X608113Y160626D01*
X632500Y155776D01*
X867500D01*
X891886Y160626D01*
X912560Y174440D01*
X926374Y195114D01*
X931224Y219500D01*
Y304500D01*
X926374Y328886D01*
X912560Y349560D01*
X891886Y363374D01*
X867500Y368224D01*
D02*
G37*
G36*
X3606955Y287300D02*
X3412700D01*
Y73045D01*
X3526000D01*
X3556980Y79207D01*
X3583244Y96756D01*
X3600793Y123020D01*
X3606955Y154000D01*
Y287300D01*
D02*
G37*
G36*
X3387300D02*
X3193045D01*
Y154000D01*
X3199207Y123020D01*
X3216756Y96756D01*
X3243020Y79207D01*
X3274000Y73045D01*
X3387300D01*
Y287300D01*
D02*
G37*
G36*
X506955D02*
X312700D01*
Y73045D01*
X426000D01*
X456980Y79207D01*
X483244Y96756D01*
X500793Y123020D01*
X506955Y154000D01*
Y287300D01*
D02*
G37*
G36*
X287300D02*
X93045D01*
Y154000D01*
X99207Y123020D01*
X116756Y96756D01*
X143020Y79207D01*
X174000Y73045D01*
X287300D01*
Y287300D01*
D02*
G37*
%LPD*%
G36*
X3455000Y4295000D02*
X3380000D01*
Y4352511D01*
X3440013D01*
Y4407546D01*
X3380000D01*
Y4465000D01*
X3455000D01*
Y4295000D01*
D02*
G37*
G36*
X3160000Y4407505D02*
X3099995Y4407505D01*
X3099995Y4352502D01*
X3160000Y4352503D01*
X3160000Y4295000D01*
X3085000D01*
Y4465000D01*
X3160000D01*
X3160000Y4407505D01*
D02*
G37*
D10*
X3490000Y3390000D02*
D03*
X3590000D02*
D03*
X220000Y4330000D02*
D03*
X320000D02*
D03*
X3130000Y610000D02*
D03*
X3030000D02*
D03*
X3130000Y950000D02*
D03*
X3030000D02*
D03*
X3130000Y730000D02*
D03*
X3030000D02*
D03*
X3130000Y1070000D02*
D03*
X3030000D02*
D03*
X480000Y2360000D02*
D03*
X380000D02*
D03*
X480000Y2490000D02*
D03*
X380000D02*
D03*
D11*
X3480000Y1490000D02*
D03*
Y1570000D02*
D03*
Y1650000D02*
D03*
Y1730000D02*
D03*
Y1810000D02*
D03*
Y1890000D02*
D03*
Y1970000D02*
D03*
Y2050000D02*
D03*
Y2130000D02*
D03*
Y2210000D02*
D03*
Y2290000D02*
D03*
Y2370000D02*
D03*
Y2450000D02*
D03*
Y2530000D02*
D03*
Y2610000D02*
D03*
Y2690000D02*
D03*
Y2770000D02*
D03*
Y2850000D02*
D03*
Y2930000D02*
D03*
X3074000Y1490000D02*
D03*
Y1570000D02*
D03*
Y1650000D02*
D03*
Y1730000D02*
D03*
Y1810000D02*
D03*
Y1890000D02*
D03*
Y1970000D02*
D03*
Y2050000D02*
D03*
Y2130000D02*
D03*
Y2210000D02*
D03*
Y2290000D02*
D03*
Y2370000D02*
D03*
Y2450000D02*
D03*
Y2530000D02*
D03*
Y2610000D02*
D03*
Y2690000D02*
D03*
Y2770000D02*
D03*
Y2850000D02*
D03*
Y2930000D02*
D03*
X3480000Y3010000D02*
D03*
X3074000D02*
D03*
D12*
X350000Y4490000D02*
D03*
D13*
X190000D02*
D03*
D14*
X3390000Y4380000D02*
D03*
X3150000D02*
D03*
D15*
X3455000D02*
D03*
X3085000D02*
D03*
D16*
X3064000Y2770000D02*
X3220000D01*
X3260000Y140000D02*
Y440000D01*
X3400000Y300000D01*
X3260000Y140000D02*
X3540000D01*
Y440000D02*
Y460000D01*
X3400000Y300000D02*
X3540000Y440000D01*
X160000Y460000D02*
X440000D01*
X160000Y150000D02*
Y460000D01*
Y150000D02*
X170000Y140000D01*
X440000D01*
X300000Y280000D02*
X440000Y140000D01*
X300000Y280000D02*
Y300000D01*
X3260000Y5360000D02*
X3400000Y5220000D01*
Y5200000D02*
Y5220000D01*
X3540000Y5340000D02*
Y5360000D01*
X3400000Y5200000D02*
X3540000Y5340000D01*
Y5040000D02*
Y5340000D01*
X3260000Y5040000D02*
X3540000D01*
X3260000D02*
Y5060000D01*
X3400000Y5200000D01*
X160000Y5340000D02*
Y5370000D01*
Y5340000D02*
X300000Y5200000D01*
Y5220000D01*
X440000Y5360000D01*
Y5040000D02*
Y5360000D01*
X160000Y5040000D02*
X440000D01*
X160000D02*
Y5060000D01*
X300000Y5200000D01*
Y680000D02*
X310000Y690000D01*
X300000Y300000D02*
Y680000D01*
X3455000Y4245000D02*
X3600000Y4100000D01*
X3455000Y4245000D02*
Y4320000D01*
X3600000Y3400000D02*
Y4100000D01*
X2360000Y3670000D02*
X2481000Y3791000D01*
X2360000Y1770000D02*
Y3670000D01*
X2571000Y3791000D02*
X2598000Y3818000D01*
X2481000Y3791000D02*
X2571000D01*
X2880000Y1530000D02*
X2920000Y1490000D01*
X2880000Y1530000D02*
Y1590000D01*
X2810000Y1660000D02*
X2880000Y1590000D01*
X2470000Y1660000D02*
X2810000D01*
X2360000Y1770000D02*
X2470000Y1660000D01*
X2920000Y1490000D02*
X3064000D01*
X2728117Y1278000D02*
X2796024Y1210093D01*
Y1188536D02*
X2914560Y1070000D01*
X3030000D01*
X2598000Y1278000D02*
X2728117D01*
X2796024Y1188536D02*
Y1210093D01*
X2598000Y1024000D02*
X2628574Y1054574D01*
X2855426D01*
X2960000Y950000D01*
X3030000D01*
X190000Y4360000D02*
X220000Y4330000D01*
X190000Y4360000D02*
Y4490000D01*
X350000D02*
X352574D01*
X392574Y4450000D01*
X1420000D01*
X1798000Y4072000D01*
X2598000D02*
X2600093D01*
X2842000D01*
X2600093Y3818000D02*
X3128000D01*
X400000Y4390000D02*
X596117D01*
X320000Y4330000D02*
X335000Y4345000D01*
X355000D01*
X400000Y4390000D01*
X660117Y4326000D02*
X820000D01*
X596117Y4390000D02*
X660117Y4326000D01*
X1798000Y4072000D02*
X2598000D01*
X3600000Y3037574D02*
Y3380000D01*
X3590000Y3390000D02*
X3600000Y3380000D01*
X3582426Y3020000D02*
X3600000Y3037574D01*
X3500000Y3020000D02*
X3582426D01*
X3490000Y3010000D02*
X3500000Y3020000D01*
X3590000Y3390000D02*
X3600000Y3400000D01*
X2600093Y3818000D02*
X2668000Y3885907D01*
Y4004093D01*
X2600093Y4072000D02*
X2668000Y4004093D01*
X3128000Y3818000D02*
X3156000Y3790000D01*
X3410000Y4320000D02*
X3455000D01*
X3090000D02*
X3110000D01*
X2842000Y4072000D02*
X3090000Y4320000D01*
X310000Y2490000D02*
X380000D01*
X310000Y2360000D02*
X380000D01*
X480000Y2490000D02*
Y2505000D01*
X777000D01*
X820000Y2548000D01*
X470000Y2350000D02*
X480000Y2360000D01*
Y2345000D02*
X769000D01*
X475000D02*
X480000D01*
X769000D02*
X820000Y2294000D01*
X470000Y2350000D02*
X475000Y2345000D01*
X3200000Y950000D02*
X3300000D01*
X3370000Y1020000D01*
Y1150000D01*
X3220000Y1650000D02*
X3220000Y1650000D01*
X3064000Y1650000D02*
X3220000D01*
X3064000Y1730000D02*
X3220000D01*
X3064000Y2930000D02*
X3490000D01*
X3064000Y2690000D02*
X3490000D01*
X3064000Y2450000D02*
X3490000D01*
X3064000Y2050000D02*
X3490000D01*
X3064000Y1810000D02*
X3490000D01*
X3064000Y1490000D02*
X3490000D01*
X3064000Y1570000D02*
X3490000D01*
X3330000Y1650000D02*
X3490000D01*
X3330000Y1650000D02*
X3330000Y1650000D01*
X3130000Y1070000D02*
X3200000D01*
X3200000Y950000D02*
X3200000Y950000D01*
X3130000Y950000D02*
X3200000D01*
X3130000Y950000D02*
X3130000Y950000D01*
X3330106Y1729985D02*
X3489985D01*
X3490000Y1730000D01*
X3330091Y1729971D02*
X3330106Y1729985D01*
X3130000Y730000D02*
X3200000D01*
X3130000Y610000D02*
X3200000D01*
X2743000Y262000D02*
X2870000Y389000D01*
Y500000D01*
X2980000Y610000D01*
X2645872Y563872D02*
X2843872D01*
X2995000Y715000D01*
X2598000Y516000D02*
X2645872Y563872D01*
X2995000Y715000D02*
X3015000D01*
X3030000Y730000D01*
X3064000Y2850000D02*
X3064000Y2850000D01*
X2930000Y2850000D02*
X3064000D01*
X3064000Y3010000D02*
X3490000D01*
X3156000Y4044000D02*
Y4044001D01*
X3230000Y4118000D01*
Y4350000D01*
X3200000Y4380000D02*
X3230000Y4350000D01*
X3150000Y4380000D02*
X3200000D01*
X3300000Y4154000D02*
X3410000Y4044000D01*
X3300000Y4154000D02*
Y4350000D01*
X3330000Y4380000D01*
X3390000D01*
X2598000Y262000D02*
X2743000D01*
X2980000Y610000D02*
X3030000D01*
D17*
X3127000Y3160000D02*
D03*
X3277000Y1340000D02*
D03*
D18*
X750000Y5088000D02*
D03*
D19*
X2668000Y262000D02*
D03*
Y516000D02*
D03*
Y770000D02*
D03*
Y1024000D02*
D03*
Y1278000D02*
D03*
Y1532000D02*
D03*
Y1786000D02*
D03*
Y2040000D02*
D03*
Y2294000D02*
D03*
Y2548000D02*
D03*
Y2802000D02*
D03*
Y3056000D02*
D03*
Y3310000D02*
D03*
Y3564000D02*
D03*
Y3818000D02*
D03*
Y4072000D02*
D03*
Y4326000D02*
D03*
Y4580000D02*
D03*
Y4834000D02*
D03*
Y5088000D02*
D03*
X750000Y262000D02*
D03*
Y516000D02*
D03*
Y770000D02*
D03*
Y1024000D02*
D03*
Y1278000D02*
D03*
Y1532000D02*
D03*
Y1786000D02*
D03*
Y2040000D02*
D03*
Y2294000D02*
D03*
Y2548000D02*
D03*
Y2802000D02*
D03*
Y3056000D02*
D03*
Y3310000D02*
D03*
Y3564000D02*
D03*
Y3818000D02*
D03*
Y4072000D02*
D03*
Y4326000D02*
D03*
Y4580000D02*
D03*
Y4834000D02*
D03*
D20*
X3400000Y5200000D02*
D03*
X300000Y300000D02*
D03*
Y5200000D02*
D03*
X3400000Y300000D02*
D03*
D21*
X3136000Y3790000D02*
D03*
X3430000D02*
D03*
Y4044000D02*
D03*
D22*
X3136000D02*
D03*
D23*
X3220000Y2770000D02*
D03*
X2260000Y2580000D02*
D03*
Y2810000D02*
D03*
X2445803Y2976678D02*
D03*
X3590000Y860000D02*
D03*
X520000Y2260000D02*
D03*
X510000Y2730000D02*
D03*
X990000Y2770000D02*
D03*
X1000000Y2380000D02*
D03*
X540000Y4200000D02*
D03*
X2910000Y4280000D02*
D03*
X3130000Y4220000D02*
D03*
X2870000Y3940000D02*
D03*
X2880000Y3690000D02*
D03*
X2460000Y2420000D02*
D03*
X2880000D02*
D03*
X2890000Y1700000D02*
D03*
X2900000Y1210000D02*
D03*
X970000Y390000D02*
D03*
X2430000D02*
D03*
X2990000Y480000D02*
D03*
X3080000Y840000D02*
D03*
X3280000Y1890000D02*
D03*
X3277000Y2050000D02*
D03*
Y2450000D02*
D03*
X3270000Y2690000D02*
D03*
X3510000Y3110000D02*
D03*
X3600000Y4260000D02*
D03*
X3260000Y4480000D02*
D03*
X1660000Y120000D02*
D03*
X2410000Y1400000D02*
D03*
X1010000Y4320000D02*
D03*
X2430000Y3940000D02*
D03*
X2410000Y4200000D02*
D03*
X310000Y2490000D02*
D03*
Y2360000D02*
D03*
X3370000Y1150000D02*
D03*
X3220000Y1650000D02*
D03*
Y1730000D02*
D03*
X3330000Y1650000D02*
D03*
X3200000Y1070000D02*
D03*
Y950000D02*
D03*
X3330091Y1729971D02*
D03*
X3200000Y730000D02*
D03*
Y610000D02*
D03*
X2930000Y2850000D02*
D03*
X3260000Y5040000D02*
D03*
X3540000D02*
D03*
Y5360000D02*
D03*
X3260000D02*
D03*
X160000Y140000D02*
D03*
X440000D02*
D03*
Y460000D02*
D03*
X160000D02*
D03*
Y5040000D02*
D03*
X440000D02*
D03*
Y5360000D02*
D03*
X160000D02*
D03*
X3260000Y140000D02*
D03*
X3540000D02*
D03*
Y460000D02*
D03*
X3260000D02*
D03*
%TF.MD5,303b18862cfcae95fa0023841b4b2779*%
M02*
