%TF.GenerationSoftware,Altium Limited,Altium Designer,25.5.2 (35)*%
G04 Layer_Physical_Order=2*
G04 Layer_Color=16711680*
%FSLAX45Y45*%
%MOMM*%
%TF.SameCoordinates,04C475F5-62FD-4A33-8D44-780EF8A6E366*%
%TF.FilePolarity,Positive*%
%TF.FileFunction,Copper,L2,Bot,Signal*%
%TF.Part,Single*%
G01*
G75*
%TA.AperFunction,Conductor*%
%ADD16C,0.30000*%
%TA.AperFunction,ComponentPad*%
G04:AMPARAMS|DCode=17|XSize=1.55mm|YSize=1.6mm|CornerRadius=0.3875mm|HoleSize=0mm|Usage=FLASHONLY|Rotation=270.000|XOffset=0mm|YOffset=0mm|HoleType=Round|Shape=RoundedRectangle|*
%AMROUNDEDRECTD17*
21,1,1.55000,0.82500,0,0,270.0*
21,1,0.77500,1.60000,0,0,270.0*
1,1,0.77500,-0.41250,-0.38750*
1,1,0.77500,-0.41250,0.38750*
1,1,0.77500,0.41250,0.38750*
1,1,0.77500,0.41250,-0.38750*
%
%ADD17ROUNDEDRECTD17*%
G04:AMPARAMS|DCode=19|XSize=1.7mm|YSize=3.2mm|CornerRadius=0.425mm|HoleSize=0mm|Usage=FLASHONLY|Rotation=90.000|XOffset=0mm|YOffset=0mm|HoleType=Round|Shape=RoundedRectangle|*
%AMROUNDEDRECTD19*
21,1,1.70000,2.35001,0,0,90.0*
21,1,0.85000,3.20000,0,0,90.0*
1,1,0.85000,1.17500,0.42500*
1,1,0.85000,1.17500,-0.42500*
1,1,0.85000,-1.17500,-0.42500*
1,1,0.85000,-1.17500,0.42500*
%
%ADD19ROUNDEDRECTD19*%
G04:AMPARAMS|DCode=20|XSize=4mm|YSize=3.6mm|CornerRadius=0.54mm|HoleSize=0mm|Usage=FLASHONLY|Rotation=90.000|XOffset=0mm|YOffset=0mm|HoleType=Round|Shape=RoundedRectangle|*
%AMROUNDEDRECTD20*
21,1,4.00000,2.52000,0,0,90.0*
21,1,2.92000,3.60000,0,0,90.0*
1,1,1.08000,1.26000,1.46000*
1,1,1.08000,1.26000,-1.46000*
1,1,1.08000,-1.26000,-1.46000*
1,1,1.08000,-1.26000,1.46000*
%
%ADD20ROUNDEDRECTD20*%
G04:AMPARAMS|DCode=21|XSize=1.7mm|YSize=2.1mm|CornerRadius=0.425mm|HoleSize=0mm|Usage=FLASHONLY|Rotation=270.000|XOffset=0mm|YOffset=0mm|HoleType=Round|Shape=RoundedRectangle|*
%AMROUNDEDRECTD21*
21,1,1.70000,1.25001,0,0,270.0*
21,1,0.85000,2.10000,0,0,270.0*
1,1,0.85000,-0.62500,-0.42500*
1,1,0.85000,-0.62500,0.42500*
1,1,0.85000,0.62500,0.42500*
1,1,0.85000,0.62500,-0.42500*
%
%ADD21ROUNDEDRECTD21*%
G04:AMPARAMS|DCode=22|XSize=1.7mm|YSize=2.1mm|CornerRadius=0mm|HoleSize=0mm|Usage=FLASHONLY|Rotation=270.000|XOffset=0mm|YOffset=0mm|HoleType=Round|Shape=Octagon|*
%AMOCTAGOND22*
4,1,8,1.05000,0.42500,1.05000,-0.42500,0.62500,-0.85000,-0.62500,-0.85000,-1.05000,-0.42500,-1.05000,0.42500,-0.62500,0.85000,0.62500,0.85000,1.05000,0.42500,0.0*
%
%ADD22OCTAGOND22*%

%TA.AperFunction,ViaPad*%
%ADD23C,0.60000*%
%TA.AperFunction,ComponentPad*%
G04:AMPARAMS|DCode=24|XSize=1.7mm|YSize=3mm|CornerRadius=0mm|HoleSize=0mm|Usage=FLASHONLY|Rotation=270.000|XOffset=0mm|YOffset=0mm|HoleType=Round|Shape=Octagon|*
%AMOCTAGOND24*
4,1,8,1.50000,0.42500,1.50000,-0.42500,1.07500,-0.85000,-1.07500,-0.85000,-1.50000,-0.42500,-1.50000,0.42500,-1.07500,0.85000,1.07500,0.85000,1.50000,0.42500,0.0*
%
%ADD24OCTAGOND24*%

G36*
X3540437Y5450913D02*
X3578118Y5435305D01*
X3610476Y5410476D01*
X3635305Y5378118D01*
X3650913Y5340437D01*
X3656164Y5300550D01*
X3656055Y5300000D01*
X3656056Y200000D01*
X3656165Y199453D01*
X3650913Y159563D01*
X3635305Y121882D01*
X3610476Y89524D01*
X3578118Y64695D01*
X3540437Y49087D01*
X3500547Y43836D01*
X3500000Y43944D01*
X214956Y43944D01*
X214710Y43944D01*
X200000Y43945D01*
X185705Y45646D01*
X159563Y49087D01*
X121882Y64695D01*
X89524Y89524D01*
X64695Y121882D01*
X49087Y159563D01*
X43836Y199453D01*
X43944Y200000D01*
X43943Y5285008D01*
X43945Y5300000D01*
X45646Y5314295D01*
X49087Y5340437D01*
X64695Y5378118D01*
X89524Y5410476D01*
X121882Y5435305D01*
X159563Y5450913D01*
X185705Y5454354D01*
X200000Y5456055D01*
Y5456056D01*
X200001Y5456056D01*
X3500000Y5456056D01*
X3500547Y5456164D01*
X3540437Y5450913D01*
D02*
G37*
%LPC*%
G36*
X3526000Y5426955D02*
X3412700D01*
Y5212700D01*
X3606955D01*
Y5346000D01*
X3600793Y5376980D01*
X3583244Y5403244D01*
X3556980Y5420793D01*
X3526000Y5426955D01*
D02*
G37*
G36*
X426000D02*
X312700D01*
Y5212700D01*
X506955D01*
Y5346000D01*
X500793Y5376980D01*
X483244Y5403244D01*
X456980Y5420793D01*
X426000Y5426955D01*
D02*
G37*
G36*
X3387300D02*
X3274000D01*
X3243020Y5420793D01*
X3216756Y5403244D01*
X3199207Y5376980D01*
X3193045Y5346000D01*
Y5212700D01*
X3387300D01*
Y5426955D01*
D02*
G37*
G36*
X287300D02*
X174000D01*
X143020Y5420793D01*
X116756Y5403244D01*
X99207Y5376980D01*
X93045Y5346000D01*
Y5212700D01*
X287300D01*
Y5426955D01*
D02*
G37*
G36*
X867500Y5193000D02*
X632500D01*
X580000Y5140500D01*
Y5035500D01*
X632500Y4983000D01*
X867500D01*
X920000Y5035500D01*
Y5140500D01*
X867500Y5193000D01*
D02*
G37*
G36*
X2785500Y5194224D02*
X2550500D01*
X2526114Y5189374D01*
X2505440Y5175560D01*
X2491626Y5154886D01*
X2486776Y5130500D01*
Y5045500D01*
X2491626Y5021114D01*
X2505440Y5000440D01*
X2526114Y4986626D01*
X2550500Y4981776D01*
X2785500D01*
X2809886Y4986626D01*
X2830560Y5000440D01*
X2844374Y5021114D01*
X2849224Y5045500D01*
Y5130500D01*
X2844374Y5154886D01*
X2830560Y5175560D01*
X2809886Y5189374D01*
X2785500Y5194224D01*
D02*
G37*
G36*
X3606955Y5187300D02*
X3412700D01*
Y4973045D01*
X3526000D01*
X3556980Y4979207D01*
X3583244Y4996756D01*
X3600793Y5023020D01*
X3606955Y5054000D01*
Y5187300D01*
D02*
G37*
G36*
X3387300D02*
X3193045D01*
Y5054000D01*
X3199207Y5023020D01*
X3216756Y4996756D01*
X3243020Y4979207D01*
X3274000Y4973045D01*
X3387300D01*
Y5187300D01*
D02*
G37*
G36*
X506955D02*
X312700D01*
Y4973045D01*
X426000D01*
X456980Y4979207D01*
X483244Y4996756D01*
X500793Y5023020D01*
X506955Y5054000D01*
Y5187300D01*
D02*
G37*
G36*
X287300D02*
X93045D01*
Y5054000D01*
X99207Y5023020D01*
X116756Y4996756D01*
X143020Y4979207D01*
X174000Y4973045D01*
X287300D01*
Y5187300D01*
D02*
G37*
G36*
X2785500Y4940224D02*
X2550500D01*
X2526114Y4935374D01*
X2505440Y4921560D01*
X2491626Y4900886D01*
X2486776Y4876500D01*
Y4791500D01*
X2491626Y4767114D01*
X2505440Y4746440D01*
X2526114Y4732626D01*
X2550500Y4727776D01*
X2785500D01*
X2809886Y4732626D01*
X2830560Y4746440D01*
X2844374Y4767114D01*
X2849224Y4791500D01*
Y4876500D01*
X2844374Y4900886D01*
X2830560Y4921560D01*
X2809886Y4935374D01*
X2785500Y4940224D01*
D02*
G37*
G36*
X867500D02*
X632500D01*
X608113Y4935374D01*
X587440Y4921560D01*
X573626Y4900886D01*
X568775Y4876500D01*
Y4791500D01*
X573626Y4767114D01*
X587440Y4746440D01*
X608113Y4732626D01*
X632500Y4727776D01*
X867500D01*
X891886Y4732626D01*
X912560Y4746440D01*
X926374Y4767114D01*
X931224Y4791500D01*
Y4876500D01*
X926374Y4900886D01*
X912560Y4921560D01*
X891886Y4935374D01*
X867500Y4940224D01*
D02*
G37*
G36*
X2785500Y4691730D02*
X2680700D01*
Y4592700D01*
X2854730D01*
Y4622500D01*
X2849460Y4648993D01*
X2834453Y4671453D01*
X2811993Y4686460D01*
X2785500Y4691730D01*
D02*
G37*
G36*
X867500D02*
X762700D01*
Y4592700D01*
X936730D01*
Y4622500D01*
X931460Y4648993D01*
X916453Y4671453D01*
X893993Y4686460D01*
X867500Y4691730D01*
D02*
G37*
G36*
X737300D02*
X632500D01*
X606006Y4686460D01*
X583547Y4671453D01*
X568539Y4648993D01*
X563270Y4622500D01*
Y4592700D01*
X737300D01*
Y4691730D01*
D02*
G37*
G36*
X2655300D02*
X2550500D01*
X2524007Y4686460D01*
X2501547Y4671453D01*
X2486540Y4648993D01*
X2481270Y4622500D01*
Y4592700D01*
X2655300D01*
Y4691730D01*
D02*
G37*
G36*
X2854730Y4567300D02*
X2680700D01*
Y4468270D01*
X2785500D01*
X2811993Y4473540D01*
X2834453Y4488547D01*
X2849460Y4511007D01*
X2854730Y4537500D01*
Y4567300D01*
D02*
G37*
G36*
X2655300D02*
X2481270D01*
Y4537500D01*
X2486540Y4511007D01*
X2501547Y4488547D01*
X2524007Y4473540D01*
X2550500Y4468270D01*
X2655300D01*
Y4567300D01*
D02*
G37*
G36*
X936730D02*
X762700D01*
Y4468270D01*
X867500D01*
X893993Y4473540D01*
X916453Y4488547D01*
X931460Y4511007D01*
X936730Y4537500D01*
Y4567300D01*
D02*
G37*
G36*
X737300D02*
X563270D01*
Y4537500D01*
X568539Y4511007D01*
X583547Y4488547D01*
X606006Y4473540D01*
X632500Y4468270D01*
X737300D01*
Y4567300D01*
D02*
G37*
G36*
X2785500Y4432224D02*
X2550500D01*
X2526114Y4427374D01*
X2505440Y4413560D01*
X2491626Y4392886D01*
X2486776Y4368500D01*
Y4283500D01*
X2491626Y4259114D01*
X2505440Y4238440D01*
X2526114Y4224626D01*
X2550500Y4219776D01*
X2785500D01*
X2809886Y4224626D01*
X2830560Y4238440D01*
X2844374Y4259114D01*
X2849224Y4283500D01*
Y4368500D01*
X2844374Y4392886D01*
X2830560Y4413560D01*
X2809886Y4427374D01*
X2785500Y4432224D01*
D02*
G37*
G36*
X867500D02*
X632500D01*
X608113Y4427374D01*
X587440Y4413560D01*
X573626Y4392886D01*
X568775Y4368500D01*
Y4283500D01*
X573626Y4259114D01*
X587440Y4238440D01*
X608113Y4224626D01*
X632500Y4219776D01*
X867500D01*
X891886Y4224626D01*
X912560Y4238440D01*
X926374Y4259114D01*
X931224Y4283500D01*
Y4368500D01*
X926374Y4392886D01*
X912560Y4413560D01*
X891886Y4427374D01*
X867500Y4432224D01*
D02*
G37*
G36*
X2785500Y4178224D02*
X2550500D01*
X2526114Y4173374D01*
X2505440Y4159560D01*
X2491626Y4138886D01*
X2486776Y4114500D01*
Y4029500D01*
X2491626Y4005114D01*
X2505440Y3984440D01*
X2526114Y3970626D01*
X2550500Y3965776D01*
X2785500D01*
X2809886Y3970626D01*
X2830560Y3984440D01*
X2844374Y4005114D01*
X2849224Y4029500D01*
Y4114500D01*
X2844374Y4138886D01*
X2830560Y4159560D01*
X2809886Y4173374D01*
X2785500Y4178224D01*
D02*
G37*
G36*
X867500D02*
X632500D01*
X608113Y4173374D01*
X587440Y4159560D01*
X573626Y4138886D01*
X568775Y4114500D01*
Y4029500D01*
X573626Y4005114D01*
X587440Y3984440D01*
X608113Y3970626D01*
X632500Y3965776D01*
X867500D01*
X891886Y3970626D01*
X912560Y3984440D01*
X926374Y4005114D01*
X931224Y4029500D01*
Y4114500D01*
X926374Y4138886D01*
X912560Y4159560D01*
X891886Y4173374D01*
X867500Y4178224D01*
D02*
G37*
G36*
X3208500Y4149000D02*
X3063500D01*
X3011000Y4096500D01*
Y3991500D01*
X3063500Y3939000D01*
X3208500D01*
X3261000Y3991500D01*
Y4096500D01*
X3208500Y4149000D01*
D02*
G37*
G36*
X3492500Y4150224D02*
X3367500D01*
X3343113Y4145374D01*
X3322440Y4131560D01*
X3308626Y4110886D01*
X3303775Y4086500D01*
Y4001500D01*
X3308626Y3977114D01*
X3322440Y3956440D01*
X3343113Y3942626D01*
X3367500Y3937776D01*
X3492500D01*
X3516887Y3942626D01*
X3537560Y3956440D01*
X3551374Y3977114D01*
X3556225Y4001500D01*
Y4086500D01*
X3551374Y4110886D01*
X3537560Y4131560D01*
X3516887Y4145374D01*
X3492500Y4150224D01*
D02*
G37*
G36*
Y3901730D02*
X3442700D01*
Y3802700D01*
X3561730D01*
Y3832500D01*
X3556461Y3858993D01*
X3541453Y3881453D01*
X3518993Y3896460D01*
X3492500Y3901730D01*
D02*
G37*
G36*
X3417300D02*
X3367500D01*
X3341007Y3896460D01*
X3318547Y3881453D01*
X3303539Y3858993D01*
X3298270Y3832500D01*
Y3802700D01*
X3417300D01*
Y3901730D01*
D02*
G37*
G36*
X2785500Y3924224D02*
X2550500D01*
X2526114Y3919374D01*
X2505440Y3905560D01*
X2491626Y3884886D01*
X2486776Y3860500D01*
Y3775500D01*
X2491626Y3751114D01*
X2505440Y3730440D01*
X2526114Y3716626D01*
X2550500Y3711776D01*
X2785500D01*
X2809886Y3716626D01*
X2830560Y3730440D01*
X2844374Y3751114D01*
X2849224Y3775500D01*
Y3860500D01*
X2844374Y3884886D01*
X2830560Y3905560D01*
X2809886Y3919374D01*
X2785500Y3924224D01*
D02*
G37*
G36*
X867500D02*
X632500D01*
X608113Y3919374D01*
X587440Y3905560D01*
X573626Y3884886D01*
X568775Y3860500D01*
Y3775500D01*
X573626Y3751114D01*
X587440Y3730440D01*
X608113Y3716626D01*
X632500Y3711776D01*
X867500D01*
X891886Y3716626D01*
X912560Y3730440D01*
X926374Y3751114D01*
X931224Y3775500D01*
Y3860500D01*
X926374Y3884886D01*
X912560Y3905560D01*
X891886Y3919374D01*
X867500Y3924224D01*
D02*
G37*
G36*
X3198500Y3896224D02*
X3073500D01*
X3049114Y3891374D01*
X3028440Y3877560D01*
X3014626Y3856886D01*
X3009776Y3832500D01*
Y3747500D01*
X3014626Y3723114D01*
X3028440Y3702440D01*
X3049114Y3688626D01*
X3073500Y3683776D01*
X3198500D01*
X3222887Y3688626D01*
X3243560Y3702440D01*
X3257374Y3723114D01*
X3262225Y3747500D01*
Y3832500D01*
X3257374Y3856886D01*
X3243560Y3877560D01*
X3222887Y3891374D01*
X3198500Y3896224D01*
D02*
G37*
G36*
X3561730Y3777300D02*
X3442700D01*
Y3678270D01*
X3492500D01*
X3518993Y3683540D01*
X3541453Y3698547D01*
X3556461Y3721007D01*
X3561730Y3747500D01*
Y3777300D01*
D02*
G37*
G36*
X3417300D02*
X3298270D01*
Y3747500D01*
X3303539Y3721007D01*
X3318547Y3698547D01*
X3341007Y3683540D01*
X3367500Y3678270D01*
X3417300D01*
Y3777300D01*
D02*
G37*
G36*
X2785500Y3670224D02*
X2550500D01*
X2526114Y3665374D01*
X2505440Y3651560D01*
X2491626Y3630886D01*
X2486776Y3606500D01*
Y3521500D01*
X2491626Y3497114D01*
X2505440Y3476440D01*
X2526114Y3462626D01*
X2550500Y3457776D01*
X2785500D01*
X2809886Y3462626D01*
X2830560Y3476440D01*
X2844374Y3497114D01*
X2849224Y3521500D01*
Y3606500D01*
X2844374Y3630886D01*
X2830560Y3651560D01*
X2809886Y3665374D01*
X2785500Y3670224D01*
D02*
G37*
G36*
X867500D02*
X632500D01*
X608113Y3665374D01*
X587440Y3651560D01*
X573626Y3630886D01*
X568775Y3606500D01*
Y3521500D01*
X573626Y3497114D01*
X587440Y3476440D01*
X608113Y3462626D01*
X632500Y3457776D01*
X867500D01*
X891886Y3462626D01*
X912560Y3476440D01*
X926374Y3497114D01*
X931224Y3521500D01*
Y3606500D01*
X926374Y3630886D01*
X912560Y3651560D01*
X891886Y3665374D01*
X867500Y3670224D01*
D02*
G37*
G36*
X2785500Y3421730D02*
X2680700D01*
Y3322700D01*
X2854730D01*
Y3352500D01*
X2849460Y3378993D01*
X2834453Y3401453D01*
X2811993Y3416460D01*
X2785500Y3421730D01*
D02*
G37*
G36*
X867500D02*
X762700D01*
Y3322700D01*
X936730D01*
Y3352500D01*
X931460Y3378993D01*
X916453Y3401453D01*
X893993Y3416460D01*
X867500Y3421730D01*
D02*
G37*
G36*
X737300D02*
X632500D01*
X606006Y3416460D01*
X583547Y3401453D01*
X568539Y3378993D01*
X563270Y3352500D01*
Y3322700D01*
X737300D01*
Y3421730D01*
D02*
G37*
G36*
X2655300D02*
X2550500D01*
X2524007Y3416460D01*
X2501547Y3401453D01*
X2486540Y3378993D01*
X2481270Y3352500D01*
Y3322700D01*
X2655300D01*
Y3421730D01*
D02*
G37*
G36*
X2854730Y3297300D02*
X2680700D01*
Y3198270D01*
X2785500D01*
X2811993Y3203540D01*
X2834453Y3218547D01*
X2849460Y3241007D01*
X2854730Y3267500D01*
Y3297300D01*
D02*
G37*
G36*
X2655300D02*
X2481270D01*
Y3267500D01*
X2486540Y3241007D01*
X2501547Y3218547D01*
X2524007Y3203540D01*
X2550500Y3198270D01*
X2655300D01*
Y3297300D01*
D02*
G37*
G36*
X936730D02*
X762700D01*
Y3198270D01*
X867500D01*
X893993Y3203540D01*
X916453Y3218547D01*
X931460Y3241007D01*
X936730Y3267500D01*
Y3297300D01*
D02*
G37*
G36*
X737300D02*
X563270D01*
Y3267500D01*
X568539Y3241007D01*
X583547Y3218547D01*
X606006Y3203540D01*
X632500Y3198270D01*
X737300D01*
Y3297300D01*
D02*
G37*
G36*
X3168250Y3264157D02*
X3139700D01*
Y3172700D01*
X3233656D01*
Y3198750D01*
X3228678Y3223780D01*
X3214499Y3245000D01*
X3193280Y3259178D01*
X3168250Y3264157D01*
D02*
G37*
G36*
X3114300D02*
X3085750D01*
X3060720Y3259178D01*
X3039500Y3245000D01*
X3025322Y3223780D01*
X3020343Y3198750D01*
Y3172700D01*
X3114300D01*
Y3264157D01*
D02*
G37*
G36*
X3233656Y3147300D02*
X3139700D01*
Y3055843D01*
X3168250D01*
X3193280Y3060822D01*
X3214499Y3075000D01*
X3228678Y3096220D01*
X3233656Y3121250D01*
Y3147300D01*
D02*
G37*
G36*
X3114300D02*
X3020343D01*
Y3121250D01*
X3025322Y3096220D01*
X3039500Y3075000D01*
X3060720Y3060822D01*
X3085750Y3055843D01*
X3114300D01*
Y3147300D01*
D02*
G37*
G36*
X867500Y3162224D02*
X632500D01*
X608113Y3157374D01*
X587440Y3143560D01*
X573626Y3122886D01*
X568775Y3098500D01*
Y3013500D01*
X573626Y2989114D01*
X587440Y2968440D01*
X608113Y2954626D01*
X632500Y2949776D01*
X867500D01*
X891886Y2954626D01*
X912560Y2968440D01*
X926374Y2989114D01*
X931224Y3013500D01*
Y3098500D01*
X926374Y3122886D01*
X912560Y3143560D01*
X891886Y3157374D01*
X867500Y3162224D01*
D02*
G37*
G36*
X2785500D02*
X2550500D01*
X2526114Y3157374D01*
X2505440Y3143560D01*
X2491626Y3122886D01*
X2486776Y3098500D01*
Y3013500D01*
X2491626Y2989114D01*
X2505440Y2968440D01*
X2501458Y2953060D01*
X2501000Y2952969D01*
X2489423Y2945234D01*
X2299875Y2755686D01*
X1110000D01*
X1096344Y2752969D01*
X1084766Y2745234D01*
X1045219Y2705686D01*
X924402D01*
X916733Y2720686D01*
X926374Y2735114D01*
X931224Y2759500D01*
Y2844500D01*
X926374Y2868886D01*
X912560Y2889560D01*
X891886Y2903374D01*
X867500Y2908224D01*
X632500D01*
X608113Y2903374D01*
X587440Y2889560D01*
X573626Y2868886D01*
X568775Y2844500D01*
Y2759500D01*
X573626Y2735114D01*
X583883Y2719763D01*
X579245Y2704602D01*
X578192Y2703337D01*
X576344Y2702969D01*
X564766Y2695234D01*
X395219Y2525686D01*
X346290D01*
X346048Y2526048D01*
X329509Y2537099D01*
X310000Y2540980D01*
X290491Y2537099D01*
X273952Y2526048D01*
X262901Y2509509D01*
X259020Y2490000D01*
X262901Y2470491D01*
X273952Y2453952D01*
X290491Y2442901D01*
X310000Y2439021D01*
X329509Y2442901D01*
X346048Y2453952D01*
X346290Y2454314D01*
X410000D01*
X423657Y2457031D01*
X435234Y2464766D01*
X553775Y2583308D01*
X568775Y2577095D01*
Y2505500D01*
X573626Y2481114D01*
X581524Y2469294D01*
X576645Y2453921D01*
X575010Y2452078D01*
X564766Y2445234D01*
X515218Y2395686D01*
X346290D01*
X346048Y2396048D01*
X329509Y2407099D01*
X310000Y2410980D01*
X290491Y2407099D01*
X273952Y2396048D01*
X262901Y2379509D01*
X259020Y2360000D01*
X262901Y2340491D01*
X273952Y2323952D01*
X290491Y2312901D01*
X310000Y2309021D01*
X329509Y2312901D01*
X346048Y2323952D01*
X346290Y2324314D01*
X530000D01*
X543656Y2327031D01*
X553775Y2333792D01*
X559408Y2332401D01*
X568775Y2327095D01*
Y2251500D01*
X573626Y2227114D01*
X587440Y2206440D01*
X608113Y2192626D01*
X632500Y2187776D01*
X867500D01*
X891886Y2192626D01*
X912560Y2206440D01*
X926374Y2227114D01*
X931224Y2251500D01*
Y2336500D01*
X926374Y2360886D01*
X917345Y2374398D01*
X919435Y2392402D01*
X920595Y2394231D01*
X921395Y2394766D01*
X1160943Y2634314D01*
X2488698D01*
X2495768Y2621085D01*
X2491626Y2614886D01*
X2486776Y2590500D01*
Y2505500D01*
X2491626Y2481114D01*
X2505440Y2460440D01*
X2526114Y2446626D01*
X2550500Y2441776D01*
X2785500D01*
X2809886Y2446626D01*
X2830560Y2460440D01*
X2844374Y2481114D01*
X2849224Y2505500D01*
Y2590500D01*
X2844374Y2614886D01*
X2840232Y2621085D01*
X2847302Y2634314D01*
X3120000D01*
X3133656Y2637031D01*
X3145233Y2644766D01*
X3219573Y2719106D01*
X3220000Y2719020D01*
X3239509Y2722901D01*
X3256048Y2733952D01*
X3267099Y2750491D01*
X3270979Y2770000D01*
X3267099Y2789509D01*
X3256048Y2806048D01*
X3239509Y2817099D01*
X3220000Y2820980D01*
X3200491Y2817099D01*
X3183952Y2806048D01*
X3172901Y2789509D01*
X3169020Y2770000D01*
X3169105Y2769573D01*
X3105218Y2705686D01*
X2842402D01*
X2834733Y2720686D01*
X2844374Y2735114D01*
X2849224Y2759500D01*
Y2844500D01*
X2845601Y2862719D01*
X2859425Y2870108D01*
X2879105Y2850427D01*
X2879020Y2850000D01*
X2882901Y2830491D01*
X2893952Y2813952D01*
X2910491Y2802901D01*
X2930000Y2799020D01*
X2949509Y2802901D01*
X2966048Y2813952D01*
X2977099Y2830491D01*
X2980980Y2850000D01*
X2977099Y2869509D01*
X2966048Y2886048D01*
X2949509Y2897099D01*
X2930000Y2900979D01*
X2929573Y2900895D01*
X2885234Y2945234D01*
X2873656Y2952969D01*
X2860000Y2955686D01*
X2836416D01*
X2832061Y2970686D01*
X2844374Y2989114D01*
X2849224Y3013500D01*
Y3098500D01*
X2844374Y3122886D01*
X2830560Y3143560D01*
X2809886Y3157374D01*
X2785500Y3162224D01*
D02*
G37*
G36*
Y2400224D02*
X2550500D01*
X2526114Y2395374D01*
X2505440Y2381560D01*
X2491626Y2360886D01*
X2486776Y2336500D01*
Y2251500D01*
X2491626Y2227114D01*
X2505440Y2206440D01*
X2526114Y2192626D01*
X2550500Y2187776D01*
X2785500D01*
X2809886Y2192626D01*
X2830560Y2206440D01*
X2844374Y2227114D01*
X2849224Y2251500D01*
Y2336500D01*
X2844374Y2360886D01*
X2830560Y2381560D01*
X2809886Y2395374D01*
X2785500Y2400224D01*
D02*
G37*
G36*
Y2151730D02*
X2680700D01*
Y2052700D01*
X2854730D01*
Y2082500D01*
X2849460Y2108993D01*
X2834453Y2131453D01*
X2811993Y2146460D01*
X2785500Y2151730D01*
D02*
G37*
G36*
X867500D02*
X762700D01*
Y2052700D01*
X936730D01*
Y2082500D01*
X931460Y2108993D01*
X916453Y2131453D01*
X893993Y2146460D01*
X867500Y2151730D01*
D02*
G37*
G36*
X737300D02*
X632500D01*
X606006Y2146460D01*
X583547Y2131453D01*
X568539Y2108993D01*
X563270Y2082500D01*
Y2052700D01*
X737300D01*
Y2151730D01*
D02*
G37*
G36*
X2655300D02*
X2550500D01*
X2524007Y2146460D01*
X2501547Y2131453D01*
X2486540Y2108993D01*
X2481270Y2082500D01*
Y2052700D01*
X2655300D01*
Y2151730D01*
D02*
G37*
G36*
X2854730Y2027300D02*
X2680700D01*
Y1928270D01*
X2785500D01*
X2811993Y1933540D01*
X2834453Y1948547D01*
X2849460Y1971007D01*
X2854730Y1997500D01*
Y2027300D01*
D02*
G37*
G36*
X2655300D02*
X2481270D01*
Y1997500D01*
X2486540Y1971007D01*
X2501547Y1948547D01*
X2524007Y1933540D01*
X2550500Y1928270D01*
X2655300D01*
Y2027300D01*
D02*
G37*
G36*
X936730D02*
X762700D01*
Y1928270D01*
X867500D01*
X893993Y1933540D01*
X916453Y1948547D01*
X931460Y1971007D01*
X936730Y1997500D01*
Y2027300D01*
D02*
G37*
G36*
X737300D02*
X563270D01*
Y1997500D01*
X568539Y1971007D01*
X583547Y1948547D01*
X606006Y1933540D01*
X632500Y1928270D01*
X737300D01*
Y2027300D01*
D02*
G37*
G36*
X3364341Y1831345D02*
X3294896D01*
X3281239Y1828628D01*
X3269662Y1820892D01*
X3228132Y1779362D01*
X3220000Y1780980D01*
X3200491Y1777099D01*
X3183952Y1766048D01*
X3172901Y1749509D01*
X3169020Y1730000D01*
X3172901Y1710491D01*
X3179270Y1700960D01*
X3182711Y1690000D01*
X3179270Y1679040D01*
X3172901Y1669509D01*
X3169020Y1650000D01*
X3172901Y1630491D01*
X3183952Y1613952D01*
X3200491Y1602901D01*
X3220000Y1599020D01*
X3237109Y1602424D01*
X3364314Y1475219D01*
Y1441033D01*
X3351086Y1433963D01*
X3343280Y1439178D01*
X3318250Y1444157D01*
X3289700D01*
Y1340000D01*
Y1235843D01*
X3318250D01*
X3343280Y1240822D01*
X3351086Y1246038D01*
X3364314Y1238967D01*
Y1199849D01*
X3350491Y1197099D01*
X3333952Y1186048D01*
X3322901Y1169509D01*
X3319021Y1150000D01*
X3322901Y1130491D01*
X3329453Y1120686D01*
X3321435Y1105686D01*
X3236290D01*
X3236048Y1106048D01*
X3219509Y1117099D01*
X3200000Y1120979D01*
X3180491Y1117099D01*
X3163952Y1106048D01*
X3152901Y1089509D01*
X3149020Y1070000D01*
X3152901Y1050491D01*
X3163952Y1033952D01*
X3180491Y1022901D01*
X3200000Y1019020D01*
X3219509Y1022901D01*
X3236048Y1033952D01*
X3236290Y1034314D01*
X3377141D01*
X3390797Y1037031D01*
X3402374Y1044766D01*
X3450456Y1092848D01*
X3464314Y1087108D01*
Y1004782D01*
X3229773Y770241D01*
X3219509Y777099D01*
X3200000Y780980D01*
X3180491Y777099D01*
X3163952Y766048D01*
X3152901Y749509D01*
X3149020Y730000D01*
X3152901Y710491D01*
X3163952Y693952D01*
X3180491Y682901D01*
X3187624Y681482D01*
X3194285Y672142D01*
X3195578Y664894D01*
X3190690Y659128D01*
X3180491Y657099D01*
X3163952Y646048D01*
X3152901Y629509D01*
X3149020Y610000D01*
X3152901Y590491D01*
X3163952Y573952D01*
X3180491Y562901D01*
X3200000Y559020D01*
X3219509Y562901D01*
X3236048Y573952D01*
X3247099Y590491D01*
X3250980Y610000D01*
X3250894Y610427D01*
X3575234Y934766D01*
X3582969Y946344D01*
X3585686Y960000D01*
Y1610000D01*
X3582969Y1623656D01*
X3575234Y1635234D01*
X3389575Y1820892D01*
X3377998Y1828628D01*
X3364341Y1831345D01*
D02*
G37*
G36*
X2785500Y1892224D02*
X2550500D01*
X2526114Y1887374D01*
X2505440Y1873560D01*
X2491626Y1852886D01*
X2486776Y1828500D01*
Y1743500D01*
X2491626Y1719114D01*
X2505440Y1698440D01*
X2526114Y1684626D01*
X2550500Y1679776D01*
X2785500D01*
X2809886Y1684626D01*
X2830560Y1698440D01*
X2844374Y1719114D01*
X2849224Y1743500D01*
Y1828500D01*
X2844374Y1852886D01*
X2830560Y1873560D01*
X2809886Y1887374D01*
X2785500Y1892224D01*
D02*
G37*
G36*
X867500D02*
X632500D01*
X608113Y1887374D01*
X587440Y1873560D01*
X573626Y1852886D01*
X568775Y1828500D01*
Y1743500D01*
X573626Y1719114D01*
X587440Y1698440D01*
X608113Y1684626D01*
X632500Y1679776D01*
X867500D01*
X891886Y1684626D01*
X912560Y1698440D01*
X926374Y1719114D01*
X931224Y1743500D01*
Y1828500D01*
X926374Y1852886D01*
X912560Y1873560D01*
X891886Y1887374D01*
X867500Y1892224D01*
D02*
G37*
G36*
X2785500Y1638224D02*
X2550500D01*
X2526114Y1633374D01*
X2505440Y1619560D01*
X2491626Y1598886D01*
X2486776Y1574500D01*
Y1489500D01*
X2491626Y1465114D01*
X2505440Y1444440D01*
X2526114Y1430626D01*
X2550500Y1425776D01*
X2785500D01*
X2809886Y1430626D01*
X2830560Y1444440D01*
X2844374Y1465114D01*
X2849224Y1489500D01*
Y1574500D01*
X2844374Y1598886D01*
X2830560Y1619560D01*
X2809886Y1633374D01*
X2785500Y1638224D01*
D02*
G37*
G36*
X867500D02*
X632500D01*
X608113Y1633374D01*
X587440Y1619560D01*
X573626Y1598886D01*
X568775Y1574500D01*
Y1489500D01*
X573626Y1465114D01*
X587440Y1444440D01*
X608113Y1430626D01*
X632500Y1425776D01*
X867500D01*
X891886Y1430626D01*
X912560Y1444440D01*
X926374Y1465114D01*
X931224Y1489500D01*
Y1574500D01*
X926374Y1598886D01*
X912560Y1619560D01*
X891886Y1633374D01*
X867500Y1638224D01*
D02*
G37*
G36*
X3264300Y1444157D02*
X3235750D01*
X3210720Y1439178D01*
X3189501Y1425000D01*
X3175322Y1403780D01*
X3170343Y1378750D01*
Y1352700D01*
X3264300D01*
Y1444157D01*
D02*
G37*
G36*
Y1327300D02*
X3170343D01*
Y1301250D01*
X3175322Y1276220D01*
X3189501Y1255001D01*
X3210720Y1240822D01*
X3235750Y1235843D01*
X3264300D01*
Y1327300D01*
D02*
G37*
G36*
X2785500Y1384224D02*
X2550500D01*
X2526114Y1379374D01*
X2505440Y1365560D01*
X2491626Y1344886D01*
X2486776Y1320500D01*
Y1235500D01*
X2491626Y1211114D01*
X2505440Y1190440D01*
X2526114Y1176626D01*
X2550500Y1171776D01*
X2785500D01*
X2809886Y1176626D01*
X2830560Y1190440D01*
X2844374Y1211114D01*
X2849224Y1235500D01*
Y1320500D01*
X2844374Y1344886D01*
X2830560Y1365560D01*
X2809886Y1379374D01*
X2785500Y1384224D01*
D02*
G37*
G36*
X867500D02*
X632500D01*
X608113Y1379374D01*
X587440Y1365560D01*
X573626Y1344886D01*
X568775Y1320500D01*
Y1235500D01*
X573626Y1211114D01*
X587440Y1190440D01*
X608113Y1176626D01*
X632500Y1171776D01*
X867500D01*
X891886Y1176626D01*
X912560Y1190440D01*
X926374Y1211114D01*
X931224Y1235500D01*
Y1320500D01*
X926374Y1344886D01*
X912560Y1365560D01*
X891886Y1379374D01*
X867500Y1384224D01*
D02*
G37*
G36*
X2785500Y1130224D02*
X2550500D01*
X2526114Y1125374D01*
X2505440Y1111560D01*
X2491626Y1090886D01*
X2486776Y1066500D01*
Y981500D01*
X2491626Y957114D01*
X2505440Y936440D01*
X2526114Y922626D01*
X2550500Y917776D01*
X2785500D01*
X2809886Y922626D01*
X2830560Y936440D01*
X2844374Y957114D01*
X2849224Y981500D01*
Y1066500D01*
X2844374Y1090886D01*
X2830560Y1111560D01*
X2809886Y1125374D01*
X2785500Y1130224D01*
D02*
G37*
G36*
X867500D02*
X632500D01*
X608113Y1125374D01*
X587440Y1111560D01*
X573626Y1090886D01*
X568775Y1066500D01*
Y981500D01*
X573626Y957114D01*
X587440Y936440D01*
X608113Y922626D01*
X632500Y917776D01*
X867500D01*
X891886Y922626D01*
X912560Y936440D01*
X926374Y957114D01*
X931224Y981500D01*
Y1066500D01*
X926374Y1090886D01*
X912560Y1111560D01*
X891886Y1125374D01*
X867500Y1130224D01*
D02*
G37*
G36*
X3200000Y1000979D02*
X3180491Y997099D01*
X3163952Y986048D01*
X3152901Y969509D01*
X3149020Y950000D01*
X3152901Y930491D01*
X3163952Y913952D01*
X3180491Y902901D01*
X3200000Y899020D01*
X3219509Y902901D01*
X3236048Y913952D01*
X3247099Y930491D01*
X3250980Y950000D01*
X3247099Y969509D01*
X3236048Y986048D01*
X3219509Y997099D01*
X3200000Y1000979D01*
D02*
G37*
G36*
X2785500Y881730D02*
X2680700D01*
Y782700D01*
X2854730D01*
Y812500D01*
X2849460Y838993D01*
X2834453Y861453D01*
X2811993Y876460D01*
X2785500Y881730D01*
D02*
G37*
G36*
X867500D02*
X762700D01*
Y782700D01*
X936730D01*
Y812500D01*
X931460Y838993D01*
X916453Y861453D01*
X893993Y876460D01*
X867500Y881730D01*
D02*
G37*
G36*
X737300D02*
X632500D01*
X606006Y876460D01*
X583547Y861453D01*
X568539Y838993D01*
X563270Y812500D01*
Y782700D01*
X737300D01*
Y881730D01*
D02*
G37*
G36*
X2655300D02*
X2550500D01*
X2524007Y876460D01*
X2501547Y861453D01*
X2486540Y838993D01*
X2481270Y812500D01*
Y782700D01*
X2655300D01*
Y881730D01*
D02*
G37*
G36*
X2854730Y757300D02*
X2680700D01*
Y658270D01*
X2785500D01*
X2811993Y663540D01*
X2834453Y678547D01*
X2849460Y701007D01*
X2854730Y727500D01*
Y757300D01*
D02*
G37*
G36*
X2655300D02*
X2481270D01*
Y727500D01*
X2486540Y701007D01*
X2501547Y678547D01*
X2524007Y663540D01*
X2550500Y658270D01*
X2655300D01*
Y757300D01*
D02*
G37*
G36*
X936730D02*
X762700D01*
Y658270D01*
X867500D01*
X893993Y663540D01*
X916453Y678547D01*
X931460Y701007D01*
X936730Y727500D01*
Y757300D01*
D02*
G37*
G36*
X737300D02*
X563270D01*
Y727500D01*
X568539Y701007D01*
X583547Y678547D01*
X606006Y663540D01*
X632500Y658270D01*
X737300D01*
Y757300D01*
D02*
G37*
G36*
X2785500Y622224D02*
X2550500D01*
X2526114Y617374D01*
X2505440Y603560D01*
X2491626Y582886D01*
X2486776Y558500D01*
Y473500D01*
X2491626Y449114D01*
X2505440Y428440D01*
X2526114Y414626D01*
X2550500Y409776D01*
X2785500D01*
X2809886Y414626D01*
X2830560Y428440D01*
X2844374Y449114D01*
X2849224Y473500D01*
Y558500D01*
X2844374Y582886D01*
X2830560Y603560D01*
X2809886Y617374D01*
X2785500Y622224D01*
D02*
G37*
G36*
X867500D02*
X632500D01*
X608113Y617374D01*
X587440Y603560D01*
X573626Y582886D01*
X568775Y558500D01*
Y473500D01*
X573626Y449114D01*
X587440Y428440D01*
X608113Y414626D01*
X632500Y409776D01*
X867500D01*
X891886Y414626D01*
X912560Y428440D01*
X926374Y449114D01*
X931224Y473500D01*
Y558500D01*
X926374Y582886D01*
X912560Y603560D01*
X891886Y617374D01*
X867500Y622224D01*
D02*
G37*
G36*
X3526000Y526955D02*
X3412700D01*
Y312700D01*
X3606955D01*
Y446000D01*
X3600793Y476980D01*
X3583244Y503244D01*
X3556980Y520793D01*
X3526000Y526955D01*
D02*
G37*
G36*
X426000D02*
X312700D01*
Y312700D01*
X506955D01*
Y446000D01*
X500793Y476980D01*
X483244Y503244D01*
X456980Y520793D01*
X426000Y526955D01*
D02*
G37*
G36*
X287300D02*
X174000D01*
X143020Y520793D01*
X116756Y503244D01*
X99207Y476980D01*
X93045Y446000D01*
Y312700D01*
X287300D01*
Y526955D01*
D02*
G37*
G36*
X3387300D02*
X3274000D01*
X3243020Y520793D01*
X3216756Y503244D01*
X3199207Y476980D01*
X3193045Y446000D01*
Y312700D01*
X3387300D01*
Y526955D01*
D02*
G37*
G36*
X2785500Y368224D02*
X2550500D01*
X2526114Y363374D01*
X2505440Y349560D01*
X2491626Y328886D01*
X2486776Y304500D01*
Y219500D01*
X2491626Y195114D01*
X2505440Y174440D01*
X2526114Y160626D01*
X2550500Y155776D01*
X2785500D01*
X2809886Y160626D01*
X2830560Y174440D01*
X2844374Y195114D01*
X2849224Y219500D01*
Y304500D01*
X2844374Y328886D01*
X2830560Y349560D01*
X2809886Y363374D01*
X2785500Y368224D01*
D02*
G37*
G36*
X867500D02*
X632500D01*
X608113Y363374D01*
X587440Y349560D01*
X573626Y328886D01*
X568775Y304500D01*
Y219500D01*
X573626Y195114D01*
X587440Y174440D01*
X608113Y160626D01*
X632500Y155776D01*
X867500D01*
X891886Y160626D01*
X912560Y174440D01*
X926374Y195114D01*
X931224Y219500D01*
Y304500D01*
X926374Y328886D01*
X912560Y349560D01*
X891886Y363374D01*
X867500Y368224D01*
D02*
G37*
G36*
X3606955Y287300D02*
X3412700D01*
Y73045D01*
X3526000D01*
X3556980Y79207D01*
X3583244Y96756D01*
X3600793Y123020D01*
X3606955Y154000D01*
Y287300D01*
D02*
G37*
G36*
X3387300D02*
X3193045D01*
Y154000D01*
X3199207Y123020D01*
X3216756Y96756D01*
X3243020Y79207D01*
X3274000Y73045D01*
X3387300D01*
Y287300D01*
D02*
G37*
G36*
X506955D02*
X312700D01*
Y73045D01*
X426000D01*
X456980Y79207D01*
X483244Y96756D01*
X500793Y123020D01*
X506955Y154000D01*
Y287300D01*
D02*
G37*
G36*
X287300D02*
X93045D01*
Y154000D01*
X99207Y123020D01*
X116756Y96756D01*
X143020Y79207D01*
X174000Y73045D01*
X287300D01*
Y287300D01*
D02*
G37*
%LPD*%
D16*
X1146162Y2670000D02*
X3120000D01*
X3220000Y2770000D01*
X2314657Y2720000D02*
X2514657Y2920000D01*
X1060000Y2670000D02*
X1110000Y2720000D01*
X2314657D01*
X3400000Y1180000D02*
Y1490000D01*
X3225740Y1644260D02*
X3245740D01*
X3400000Y1490000D01*
X3220000Y1650000D02*
X3225740Y1644260D01*
X3550000Y960000D02*
Y1610000D01*
X3200000Y610000D02*
X3550000Y960000D01*
X3500000Y990000D02*
Y1580000D01*
X3203033Y733033D02*
X3243033D01*
X3500000Y990000D01*
X3200000Y730000D02*
X3203033Y733033D01*
X3377141Y1070000D02*
X3450000Y1142859D01*
X3200000Y1070000D02*
X3377141D01*
X3450000Y1142859D02*
Y1530000D01*
X3294896Y1795659D02*
X3364341D01*
X3550000Y1610000D01*
X3335831Y1724230D02*
X3355770D01*
X3500000Y1580000D01*
X3330091Y1729971D02*
X3335831Y1724230D01*
X3330000Y1650000D02*
X3450000Y1530000D01*
X3228118Y1730000D02*
X3243118Y1745000D01*
X3220000Y1730000D02*
X3228118D01*
X3244237Y1745000D02*
X3294896Y1795659D01*
X3243118Y1745000D02*
X3244237D01*
X2514657Y2920000D02*
X2860000D01*
X310000Y2360000D02*
X530000D01*
X590000Y2420000D02*
X896162D01*
X530000Y2360000D02*
X590000Y2420000D01*
X896162D02*
X1146162Y2670000D01*
X310000Y2490000D02*
X410000D01*
X590000Y2670000D01*
X2930000Y2850000D02*
Y2850000D01*
X2860000Y2920000D02*
X2930000Y2850000D01*
X590000Y2670000D02*
X1060000D01*
X3370000Y1150000D02*
X3400000Y1180000D01*
D17*
X3127000Y3160000D02*
D03*
X3277000Y1340000D02*
D03*
D19*
X2668000Y262000D02*
D03*
Y516000D02*
D03*
Y770000D02*
D03*
Y1024000D02*
D03*
Y1278000D02*
D03*
Y1532000D02*
D03*
Y1786000D02*
D03*
Y2040000D02*
D03*
Y2294000D02*
D03*
Y2548000D02*
D03*
Y2802000D02*
D03*
Y3056000D02*
D03*
Y3310000D02*
D03*
Y3564000D02*
D03*
Y3818000D02*
D03*
Y4072000D02*
D03*
Y4326000D02*
D03*
Y4580000D02*
D03*
Y4834000D02*
D03*
Y5088000D02*
D03*
X750000Y262000D02*
D03*
Y516000D02*
D03*
Y770000D02*
D03*
Y1024000D02*
D03*
Y1278000D02*
D03*
Y1532000D02*
D03*
Y1786000D02*
D03*
Y2040000D02*
D03*
Y2294000D02*
D03*
Y2548000D02*
D03*
Y2802000D02*
D03*
Y3056000D02*
D03*
Y3310000D02*
D03*
Y3564000D02*
D03*
Y3818000D02*
D03*
Y4072000D02*
D03*
Y4326000D02*
D03*
Y4580000D02*
D03*
Y4834000D02*
D03*
D20*
X3400000Y5200000D02*
D03*
X300000Y300000D02*
D03*
Y5200000D02*
D03*
X3400000Y300000D02*
D03*
D21*
X3136000Y3790000D02*
D03*
X3430000D02*
D03*
Y4044000D02*
D03*
D22*
X3136000D02*
D03*
D23*
X3220000Y2770000D02*
D03*
X2260000Y2580000D02*
D03*
Y2810000D02*
D03*
X2445803Y2976678D02*
D03*
X3590000Y860000D02*
D03*
X520000Y2260000D02*
D03*
X510000Y2730000D02*
D03*
X990000Y2770000D02*
D03*
X1000000Y2380000D02*
D03*
X540000Y4200000D02*
D03*
X2910000Y4280000D02*
D03*
X3130000Y4220000D02*
D03*
X2870000Y3940000D02*
D03*
X2880000Y3690000D02*
D03*
X2460000Y2420000D02*
D03*
X2880000D02*
D03*
X2890000Y1700000D02*
D03*
X2900000Y1210000D02*
D03*
X970000Y390000D02*
D03*
X2430000D02*
D03*
X2990000Y480000D02*
D03*
X3080000Y840000D02*
D03*
X3280000Y1890000D02*
D03*
X3277000Y2050000D02*
D03*
Y2450000D02*
D03*
X3270000Y2690000D02*
D03*
X3510000Y3110000D02*
D03*
X3600000Y4260000D02*
D03*
X3260000Y4480000D02*
D03*
X1660000Y120000D02*
D03*
X2410000Y1400000D02*
D03*
X1010000Y4320000D02*
D03*
X2430000Y3940000D02*
D03*
X2410000Y4200000D02*
D03*
X310000Y2490000D02*
D03*
Y2360000D02*
D03*
X3370000Y1150000D02*
D03*
X3220000Y1650000D02*
D03*
Y1730000D02*
D03*
X3330000Y1650000D02*
D03*
X3200000Y1070000D02*
D03*
Y950000D02*
D03*
X3330091Y1729971D02*
D03*
X3200000Y730000D02*
D03*
Y610000D02*
D03*
X2930000Y2850000D02*
D03*
X3260000Y5040000D02*
D03*
X3540000D02*
D03*
Y5360000D02*
D03*
X3260000D02*
D03*
X160000Y140000D02*
D03*
X440000D02*
D03*
Y460000D02*
D03*
X160000D02*
D03*
Y5040000D02*
D03*
X440000D02*
D03*
Y5360000D02*
D03*
X160000D02*
D03*
X3260000Y140000D02*
D03*
X3540000D02*
D03*
Y460000D02*
D03*
X3260000D02*
D03*
D24*
X750000Y5088000D02*
D03*
%TF.MD5,b7f47173ae9093f49e1ba0e903ce3c18*%
M02*
